{
	"asset":{
		"generator":"Khronos glTF Blender I/O v3.5.30",
		"version":"2.0"
	},
	"extensionsUsed":[
		"KHR_materials_specular",
		"KHR_materials_ior"
	],
	"scene":0,
	"scenes":[
		{
			"name":"Scene",
			"nodes":[
				0
			]
		}
	],
	"nodes":[
		{
			"mesh":0,
			"name":"NILSOLLE bar stool | IKEA"
		}
	],
	"materials":[
		{
			"doubleSided":true,
			"name":"Wood.001",
			"pbrMetallicRoughness":{
				"metallicFactor":0
			}
		},
		{
			"doubleSided":true,
			"extensions":{
				"KHR_materials_specular":{
					"specularColorFactor":[
						2.371357614441398,
						2.371357614441398,
						2.371357614441398
					]
				},
				"KHR_materials_ior":{
					"ior":1.4500000476837158
				}
			},
			"name":"Metal chrome",
			"pbrMetallicRoughness":{
				"baseColorFactor":[
					0.699999988079071,
					0.699999988079071,
					0.699999988079071,
					1
				],
				"roughnessFactor":0.25
			}
		},
		{
			"doubleSided":true,
			"extensions":{
				"KHR_materials_specular":{
					"specularColorFactor":[
						1.6599503018401929,
						1.6599503018401929,
						1.6599503018401929
					]
				},
				"KHR_materials_ior":{
					"ior":1.4500000476837158
				}
			},
			"name":"Plastic black glossy",
			"pbrMetallicRoughness":{
				"baseColorFactor":[
					0.012286492623388767,
					0.012286492623388767,
					0.012286492623388767,
					1
				],
				"metallicFactor":0,
				"roughnessFactor":0.30000001192092896
			}
		}
	],
	"meshes":[
		{
			"name":"NILSOLLE bar stool | IKEA",
			"primitives":[
				{
					"attributes":{
						"POSITION":0,
						"TEXCOORD_0":1,
						"NORMAL":2
					},
					"indices":3,
					"material":0
				},
				{
					"attributes":{
						"POSITION":4,
						"TEXCOORD_0":5,
						"NORMAL":6
					},
					"indices":7,
					"material":1
				},
				{
					"attributes":{
						"POSITION":8,
						"TEXCOORD_0":9,
						"NORMAL":10
					},
					"indices":11,
					"material":2
				}
			]
		}
	],
	"accessors":[
		{
			"bufferView":0,
			"componentType":5126,
			"count":1265,
			"max":[
				0.19803856313228607,
				0.7390661239624023,
				0.1949998140335083
			],
			"min":[
				-0.19815844297409058,
				-0.0010750293731689453,
				-0.1949998140335083
			],
			"type":"VEC3"
		},
		{
			"bufferView":1,
			"componentType":5126,
			"count":1265,
			"type":"VEC2"
		},
		{
			"bufferView":2,
			"componentType":5126,
			"count":1265,
			"type":"VEC3"
		},
		{
			"bufferView":3,
			"componentType":5123,
			"count":3564,
			"type":"SCALAR"
		},
		{
			"bufferView":4,
			"componentType":5126,
			"count":154,
			"max":[
				0.17363247275352478,
				0.4928634464740753,
				0.1494503915309906
			],
			"min":[
				-0.17708151042461395,
				0.27874764800071716,
				-0.1494503915309906
			],
			"type":"VEC3"
		},
		{
			"bufferView":5,
			"componentType":5126,
			"count":154,
			"type":"VEC2"
		},
		{
			"bufferView":6,
			"componentType":5126,
			"count":154,
			"type":"VEC3"
		},
		{
			"bufferView":7,
			"componentType":5123,
			"count":420,
			"type":"SCALAR"
		},
		{
			"bufferView":8,
			"componentType":5126,
			"count":316,
			"max":[
				0.19395753741264343,
				-0.0010749995708465576,
				0.19396363198757172
			],
			"min":[
				-0.19395753741264343,
				-0.005991402082145214,
				-0.19396363198757172
			],
			"type":"VEC3"
		},
		{
			"bufferView":9,
			"componentType":5126,
			"count":316,
			"type":"VEC2"
		},
		{
			"bufferView":10,
			"componentType":5126,
			"count":316,
			"type":"VEC3"
		},
		{
			"bufferView":11,
			"componentType":5123,
			"count":948,
			"type":"SCALAR"
		}
	],
	"bufferViews":[
		{
			"buffer":0,
			"byteLength":15180,
			"byteOffset":0,
			"target":34962
		},
		{
			"buffer":0,
			"byteLength":10120,
			"byteOffset":15180,
			"target":34962
		},
		{
			"buffer":0,
			"byteLength":15180,
			"byteOffset":25300,
			"target":34962
		},
		{
			"buffer":0,
			"byteLength":7128,
			"byteOffset":40480,
			"target":34963
		},
		{
			"buffer":0,
			"byteLength":1848,
			"byteOffset":47608,
			"target":34962
		},
		{
			"buffer":0,
			"byteLength":1232,
			"byteOffset":49456,
			"target":34962
		},
		{
			"buffer":0,
			"byteLength":1848,
			"byteOffset":50688,
			"target":34962
		},
		{
			"buffer":0,
			"byteLength":840,
			"byteOffset":52536,
			"target":34963
		},
		{
			"buffer":0,
			"byteLength":3792,
			"byteOffset":53376,
			"target":34962
		},
		{
			"buffer":0,
			"byteLength":2528,
			"byteOffset":57168,
			"target":34962
		},
		{
			"buffer":0,
			"byteLength":3792,
			"byteOffset":59696,
			"target":34962
		},
		{
			"buffer":0,
			"byteLength":1896,
			"byteOffset":63488,
			"target":34963
		}
	],
	"buffers":[
		{
			"byteLength":65384,
			"uri":"BarStool.bin"
		}
	]
}
