{
	"asset":{
		"generator":"Khronos glTF Blender I/O v3.5.30",
		"version":"2.0"
	},
	"scene":0,
	"scenes":[
		{
			"name":"Scene",
			"nodes":[
				0
			]
		}
	],
	"nodes":[
		{
			"mesh":0,
			"name":"Cube.000",
			"scale":[
				0.5395643711090088,
				0.04736996442079544,
				0.5395643711090088
			],
			"translation":[
				0.115634024143219,
				0.8479964137077332,
				-0.7169229984283447
			]
		}
	],
	"materials":[
		{
			"doubleSided":true,
			"name":"Material.002",
			"pbrMetallicRoughness":{}
		}
	],
	"meshes":[
		{
			"name":"Cube.000",
			"primitives":[
				{
					"attributes":{
						"POSITION":0,
						"NORMAL":1
					},
					"indices":2,
					"material":0
				}
			]
		}
	],
	"accessors":[
		{
			"bufferView":0,
			"componentType":5126,
			"count":706,
			"max":[
				1.1514453887939453,
				21.661060333251953,
				1.4033522605895996
			],
			"min":[
				-1.1522216796875,
				-22.010936737060547,
				-0.7436351776123047
			],
			"type":"VEC3"
		},
		{
			"bufferView":1,
			"componentType":5126,
			"count":706,
			"type":"VEC3"
		},
		{
			"bufferView":2,
			"componentType":5123,
			"count":4080,
			"type":"SCALAR"
		}
	],
	"bufferViews":[
		{
			"buffer":0,
			"byteLength":8472,
			"byteOffset":0,
			"target":34962
		},
		{
			"buffer":0,
			"byteLength":8472,
			"byteOffset":8472,
			"target":34962
		},
		{
			"buffer":0,
			"byteLength":8160,
			"byteOffset":16944,
			"target":34963
		}
	],
	"buffers":[
		{
			"byteLength":25104,
			"uri":"CoasterChair.bin"
		}
	]
}
