{
	"asset":{
		"generator":"Khronos glTF Blender I/O v3.5.30",
		"version":"2.0"
	},
	"scene":0,
	"scenes":[
		{
			"name":"Scene",
			"nodes":[
				8
			]
		}
	],
	"nodes":[
		{
			"mesh":0,
			"name":"Circle",
			"rotation":[
				-0.024752359837293625,
				0.0021332509350031614,
				-0.1854419857263565,
				0.9823411107063293
			],
			"scale":[
				0.040921423584222794,
				0.040921419858932495,
				0.040921419858932495
			],
			"translation":[
				-1.7465901374816895,
				2.6351919174194336,
				-0.20064641535282135
			]
		},
		{
			"mesh":1,
			"name":"Circle.001",
			"rotation":[
				-0.024018829688429832,
				0.0020357484463602304,
				-0.1873536854982376,
				0.9819967150688171
			],
			"scale":[
				0.040921423584222794,
				0.040921419858932495,
				0.0409214161336422
			],
			"translation":[
				-1.7385578155517578,
				2.6847946643829346,
				0.8084729909896851
			]
		},
		{
			"mesh":2,
			"name":"Circle.002",
			"rotation":[
				0.622768223285675,
				0.11122455447912216,
				-0.21423466503620148,
				0.7442394495010376
			],
			"scale":[
				0.040921419858932495,
				0.040921419858932495,
				0.040921423584222794
			],
			"translation":[
				-1.5476422309875488,
				3.2266547679901123,
				-0.7808489799499512
			]
		},
		{
			"mesh":3,
			"name":"Circle.003",
			"rotation":[
				0.6187382936477661,
				0.08798792958259583,
				-0.18237699568271637,
				0.7590517997741699
			],
			"scale":[
				0.040921419858932495,
				0.040921419858932495,
				0.04092143103480339
			],
			"translation":[
				-1.3241760730743408,
				3.9053232669830322,
				-1.0010923147201538
			]
		},
		{
			"mesh":4,
			"name":"Cube.001",
			"rotation":[
				-0.03331906348466873,
				0.0026751994155347347,
				-0.07998809963464737,
				0.9962353110313416
			],
			"translation":[
				-0.9758517742156982,
				1.8057337999343872,
				0.9223788976669312
			]
		},
		{
			"mesh":5,
			"name":"Cube.002",
			"rotation":[
				0.02982276678085327,
				-0.002394480863586068,
				-0.0799969807267189,
				0.9963459968566895
			],
			"scale":[
				1.0158666372299194,
				1,
				1
			],
			"translation":[
				-0.9882034659385681,
				1.7293105125427246,
				-0.9581864476203918
			]
		},
		{
			"mesh":6,
			"name":"Plane",
			"rotation":[
				-0.007016579154878855,
				0.000563363719265908,
				-0.08003083616495132,
				0.9967676401138306
			],
			"scale":[
				0.8583934903144836,
				0.8583932518959045,
				0.8583932518959045
			],
			"translation":[
				-0.9460954666137695,
				1.9898431301116943,
				-0.03158677741885185
			]
		},
		{
			"mesh":7,
			"name":"Plane.001",
			"rotation":[
				0.6130697131156921,
				-0.04922359064221382,
				-0.06310538947582245,
				0.7859646081924438
			],
			"translation":[
				-0.7419478297233582,
				3.2529566287994385,
				-1.0496535301208496
			]
		},
		{
			"children":[
				0,
				1,
				2,
				3,
				4,
				5,
				6,
				7
			],
			"mesh":8,
			"name":"Cube",
			"rotation":[
				-0.018883097916841507,
				-0.23518513143062592,
				0.07777325809001923,
				0.9686500430107117
			],
			"scale":[
				0.1932424008846283,
				0.1932424008846283,
				0.1932423710823059
			]
		}
	],
	"materials":[
		{
			"doubleSided":true,
			"name":"Material.002",
			"pbrMetallicRoughness":{
				"baseColorFactor":[
					0.18136876821517944,
					0.18136876821517944,
					0.18136876821517944,
					1
				],
				"roughnessFactor":0.20454546809196472
			}
		},
		{
			"doubleSided":true,
			"name":"Material.003",
			"pbrMetallicRoughness":{
				"baseColorFactor":[
					0.006634877994656563,
					0.006634877994656563,
					0.006634877994656563,
					1
				],
				"roughnessFactor":0.2590909004211426
			}
		},
		{
			"doubleSided":true,
			"name":"Material.001",
			"pbrMetallicRoughness":{
				"metallicFactor":0
			}
		}
	],
	"meshes":[
		{
			"name":"Circle",
			"primitives":[
				{
					"attributes":{
						"POSITION":0,
						"TEXCOORD_0":1,
						"NORMAL":2
					},
					"indices":3,
					"material":0
				}
			]
		},
		{
			"name":"Circle.001",
			"primitives":[
				{
					"attributes":{
						"POSITION":4,
						"TEXCOORD_0":5,
						"NORMAL":6
					},
					"indices":3,
					"material":0
				}
			]
		},
		{
			"name":"Circle.002",
			"primitives":[
				{
					"attributes":{
						"POSITION":7,
						"TEXCOORD_0":8,
						"NORMAL":9
					},
					"indices":3,
					"material":0
				}
			]
		},
		{
			"name":"Circle.003",
			"primitives":[
				{
					"attributes":{
						"POSITION":10,
						"TEXCOORD_0":11,
						"NORMAL":12
					},
					"indices":13,
					"material":0
				},
				{
					"attributes":{
						"POSITION":14,
						"TEXCOORD_0":15,
						"NORMAL":16
					},
					"indices":17,
					"material":1
				}
			]
		},
		{
			"name":"Cube",
			"primitives":[
				{
					"attributes":{
						"POSITION":18,
						"TEXCOORD_0":19,
						"NORMAL":20
					},
					"indices":21,
					"material":2
				}
			]
		},
		{
			"name":"Cube.002",
			"primitives":[
				{
					"attributes":{
						"POSITION":22,
						"TEXCOORD_0":23,
						"NORMAL":24
					},
					"indices":25,
					"material":2
				}
			]
		},
		{
			"name":"Plane",
			"primitives":[
				{
					"attributes":{
						"POSITION":26,
						"TEXCOORD_0":27,
						"NORMAL":28
					},
					"indices":29,
					"material":2
				}
			]
		},
		{
			"name":"Plane.002",
			"primitives":[
				{
					"attributes":{
						"POSITION":30,
						"TEXCOORD_0":31,
						"NORMAL":32
					},
					"indices":33,
					"material":2
				}
			]
		},
		{
			"name":"Cube.001",
			"primitives":[
				{
					"attributes":{
						"POSITION":34,
						"TEXCOORD_0":35,
						"NORMAL":36
					},
					"indices":37,
					"material":2
				}
			]
		}
	],
	"accessors":[
		{
			"bufferView":0,
			"componentType":5126,
			"count":196,
			"max":[
				1,
				1.4260643183661159e-05,
				1
			],
			"min":[
				-1,
				-0.060673389583826065,
				-1
			],
			"type":"VEC3"
		},
		{
			"bufferView":1,
			"componentType":5126,
			"count":196,
			"type":"VEC2"
		},
		{
			"bufferView":2,
			"componentType":5126,
			"count":196,
			"type":"VEC3"
		},
		{
			"bufferView":3,
			"componentType":5123,
			"count":354,
			"type":"SCALAR"
		},
		{
			"bufferView":4,
			"componentType":5126,
			"count":196,
			"max":[
				1,
				1.4260643183661159e-05,
				1
			],
			"min":[
				-1,
				-0.060673389583826065,
				-1
			],
			"type":"VEC3"
		},
		{
			"bufferView":5,
			"componentType":5126,
			"count":196,
			"type":"VEC2"
		},
		{
			"bufferView":6,
			"componentType":5126,
			"count":196,
			"type":"VEC3"
		},
		{
			"bufferView":7,
			"componentType":5126,
			"count":196,
			"max":[
				1,
				1.4260643183661159e-05,
				1
			],
			"min":[
				-1,
				-0.060673389583826065,
				-1
			],
			"type":"VEC3"
		},
		{
			"bufferView":8,
			"componentType":5126,
			"count":196,
			"type":"VEC2"
		},
		{
			"bufferView":9,
			"componentType":5126,
			"count":196,
			"type":"VEC3"
		},
		{
			"bufferView":10,
			"componentType":5126,
			"count":190,
			"max":[
				1,
				1.4260643183661159e-05,
				1
			],
			"min":[
				-1,
				-0.060673389583826065,
				-1
			],
			"type":"VEC3"
		},
		{
			"bufferView":11,
			"componentType":5126,
			"count":190,
			"type":"VEC2"
		},
		{
			"bufferView":12,
			"componentType":5126,
			"count":190,
			"type":"VEC3"
		},
		{
			"bufferView":13,
			"componentType":5123,
			"count":342,
			"type":"SCALAR"
		},
		{
			"bufferView":14,
			"componentType":5126,
			"count":6,
			"max":[
				0.45383375883102417,
				-0.06067200005054474,
				0.5240418314933777
			],
			"min":[
				-0.45383304357528687,
				-0.06067200005054474,
				-0.5240413546562195
			],
			"type":"VEC3"
		},
		{
			"bufferView":15,
			"componentType":5126,
			"count":6,
			"type":"VEC2"
		},
		{
			"bufferView":16,
			"componentType":5126,
			"count":6,
			"type":"VEC3"
		},
		{
			"bufferView":17,
			"componentType":5123,
			"count":12,
			"type":"SCALAR"
		},
		{
			"bufferView":18,
			"componentType":5126,
			"count":172,
			"max":[
				0.9737477898597717,
				0.1698799431324005,
				0.036799438297748566
			],
			"min":[
				-0.9737477898597717,
				-0.14047375321388245,
				-0.036799438297748566
			],
			"type":"VEC3"
		},
		{
			"bufferView":19,
			"componentType":5126,
			"count":172,
			"type":"VEC2"
		},
		{
			"bufferView":20,
			"componentType":5126,
			"count":172,
			"type":"VEC3"
		},
		{
			"bufferView":21,
			"componentType":5123,
			"count":612,
			"type":"SCALAR"
		},
		{
			"bufferView":22,
			"componentType":5126,
			"count":176,
			"max":[
				0.9737477898597717,
				0.1698799431324005,
				0.036799438297748566
			],
			"min":[
				-0.9737477898597717,
				-0.14047375321388245,
				-0.036799438297748566
			],
			"type":"VEC3"
		},
		{
			"bufferView":23,
			"componentType":5126,
			"count":176,
			"type":"VEC2"
		},
		{
			"bufferView":24,
			"componentType":5126,
			"count":176,
			"type":"VEC3"
		},
		{
			"bufferView":25,
			"componentType":5123,
			"count":612,
			"type":"SCALAR"
		},
		{
			"bufferView":26,
			"componentType":5126,
			"count":102,
			"max":[
				1.5255372524261475,
				0.7542431950569153,
				1.4784811735153198
			],
			"min":[
				-1.5255372524261475,
				0.3902197778224945,
				-0.924030601978302
			],
			"type":"VEC3"
		},
		{
			"bufferView":27,
			"componentType":5126,
			"count":102,
			"type":"VEC2"
		},
		{
			"bufferView":28,
			"componentType":5126,
			"count":102,
			"type":"VEC3"
		},
		{
			"bufferView":29,
			"componentType":5123,
			"count":324,
			"type":"SCALAR"
		},
		{
			"bufferView":30,
			"componentType":5126,
			"count":102,
			"max":[
				1.3085463047027588,
				0.4743138551712036,
				0.49761849641799927
			],
			"min":[
				-1.3085463047027588,
				-0.006911876145750284,
				-1.016808032989502
			],
			"type":"VEC3"
		},
		{
			"bufferView":31,
			"componentType":5126,
			"count":102,
			"type":"VEC2"
		},
		{
			"bufferView":32,
			"componentType":5126,
			"count":102,
			"type":"VEC3"
		},
		{
			"bufferView":33,
			"componentType":5123,
			"count":324,
			"type":"SCALAR"
		},
		{
			"bufferView":34,
			"componentType":5126,
			"count":559,
			"max":[
				0.07088899612426758,
				3.789975643157959,
				1.1291537284851074
			],
			"min":[
				-0.036293983459472656,
				-0.010826600715517998,
				-1.1823906898498535
			],
			"type":"VEC3"
		},
		{
			"bufferView":35,
			"componentType":5126,
			"count":559,
			"type":"VEC2"
		},
		{
			"bufferView":36,
			"componentType":5126,
			"count":559,
			"type":"VEC3"
		},
		{
			"bufferView":37,
			"componentType":5123,
			"count":1476,
			"type":"SCALAR"
		}
	],
	"bufferViews":[
		{
			"buffer":0,
			"byteLength":2352,
			"byteOffset":0,
			"target":34962
		},
		{
			"buffer":0,
			"byteLength":1568,
			"byteOffset":2352,
			"target":34962
		},
		{
			"buffer":0,
			"byteLength":2352,
			"byteOffset":3920,
			"target":34962
		},
		{
			"buffer":0,
			"byteLength":708,
			"byteOffset":6272,
			"target":34963
		},
		{
			"buffer":0,
			"byteLength":2352,
			"byteOffset":6980,
			"target":34962
		},
		{
			"buffer":0,
			"byteLength":1568,
			"byteOffset":9332,
			"target":34962
		},
		{
			"buffer":0,
			"byteLength":2352,
			"byteOffset":10900,
			"target":34962
		},
		{
			"buffer":0,
			"byteLength":2352,
			"byteOffset":13252,
			"target":34962
		},
		{
			"buffer":0,
			"byteLength":1568,
			"byteOffset":15604,
			"target":34962
		},
		{
			"buffer":0,
			"byteLength":2352,
			"byteOffset":17172,
			"target":34962
		},
		{
			"buffer":0,
			"byteLength":2280,
			"byteOffset":19524,
			"target":34962
		},
		{
			"buffer":0,
			"byteLength":1520,
			"byteOffset":21804,
			"target":34962
		},
		{
			"buffer":0,
			"byteLength":2280,
			"byteOffset":23324,
			"target":34962
		},
		{
			"buffer":0,
			"byteLength":684,
			"byteOffset":25604,
			"target":34963
		},
		{
			"buffer":0,
			"byteLength":72,
			"byteOffset":26288,
			"target":34962
		},
		{
			"buffer":0,
			"byteLength":48,
			"byteOffset":26360,
			"target":34962
		},
		{
			"buffer":0,
			"byteLength":72,
			"byteOffset":26408,
			"target":34962
		},
		{
			"buffer":0,
			"byteLength":24,
			"byteOffset":26480,
			"target":34963
		},
		{
			"buffer":0,
			"byteLength":2064,
			"byteOffset":26504,
			"target":34962
		},
		{
			"buffer":0,
			"byteLength":1376,
			"byteOffset":28568,
			"target":34962
		},
		{
			"buffer":0,
			"byteLength":2064,
			"byteOffset":29944,
			"target":34962
		},
		{
			"buffer":0,
			"byteLength":1224,
			"byteOffset":32008,
			"target":34963
		},
		{
			"buffer":0,
			"byteLength":2112,
			"byteOffset":33232,
			"target":34962
		},
		{
			"buffer":0,
			"byteLength":1408,
			"byteOffset":35344,
			"target":34962
		},
		{
			"buffer":0,
			"byteLength":2112,
			"byteOffset":36752,
			"target":34962
		},
		{
			"buffer":0,
			"byteLength":1224,
			"byteOffset":38864,
			"target":34963
		},
		{
			"buffer":0,
			"byteLength":1224,
			"byteOffset":40088,
			"target":34962
		},
		{
			"buffer":0,
			"byteLength":816,
			"byteOffset":41312,
			"target":34962
		},
		{
			"buffer":0,
			"byteLength":1224,
			"byteOffset":42128,
			"target":34962
		},
		{
			"buffer":0,
			"byteLength":648,
			"byteOffset":43352,
			"target":34963
		},
		{
			"buffer":0,
			"byteLength":1224,
			"byteOffset":44000,
			"target":34962
		},
		{
			"buffer":0,
			"byteLength":816,
			"byteOffset":45224,
			"target":34962
		},
		{
			"buffer":0,
			"byteLength":1224,
			"byteOffset":46040,
			"target":34962
		},
		{
			"buffer":0,
			"byteLength":648,
			"byteOffset":47264,
			"target":34963
		},
		{
			"buffer":0,
			"byteLength":6708,
			"byteOffset":47912,
			"target":34962
		},
		{
			"buffer":0,
			"byteLength":4472,
			"byteOffset":54620,
			"target":34962
		},
		{
			"buffer":0,
			"byteLength":6708,
			"byteOffset":59092,
			"target":34962
		},
		{
			"buffer":0,
			"byteLength":2952,
			"byteOffset":65800,
			"target":34963
		}
	],
	"buffers":[
		{
			"byteLength":68752,
			"uri":"FashionChair.bin"
		}
	]
}
