{
	"asset":{
		"generator":"Khronos glTF Blender I/O v3.5.30",
		"version":"2.0"
	},
	"scene":0,
	"scenes":[
		{
			"name":"Scene",
			"nodes":[
				0
			]
		}
	],
	"nodes":[
		{
			"mesh":0,
			"name":"Kitchen_Minichair3",
			"scale":[
				0.21016597747802734,
				0.21016597747802734,
				0.21016597747802734
			],
			"translation":[
				0,
				0.06687186658382416,
				0
			]
		}
	],
	"materials":[
		{
			"doubleSided":true,
			"name":"Material.001",
			"pbrMetallicRoughness":{
				"roughnessFactor":0.5
			}
		}
	],
	"meshes":[
		{
			"name":"Plane.001",
			"primitives":[
				{
					"attributes":{
						"POSITION":0,
						"TEXCOORD_0":1,
						"NORMAL":2
					},
					"indices":3,
					"material":0
				}
			]
		}
	],
	"accessors":[
		{
			"bufferView":0,
			"componentType":5126,
			"count":438,
			"max":[
				1.049270749092102,
				3.905069351196289,
				1.049270749092102
			],
			"min":[
				-1.049270749092102,
				0,
				-1.049270749092102
			],
			"type":"VEC3"
		},
		{
			"bufferView":1,
			"componentType":5126,
			"count":438,
			"type":"VEC2"
		},
		{
			"bufferView":2,
			"componentType":5126,
			"count":438,
			"type":"VEC3"
		},
		{
			"bufferView":3,
			"componentType":5123,
			"count":1392,
			"type":"SCALAR"
		}
	],
	"bufferViews":[
		{
			"buffer":0,
			"byteLength":5256,
			"byteOffset":0,
			"target":34962
		},
		{
			"buffer":0,
			"byteLength":3504,
			"byteOffset":5256,
			"target":34962
		},
		{
			"buffer":0,
			"byteLength":5256,
			"byteOffset":8760,
			"target":34962
		},
		{
			"buffer":0,
			"byteLength":2784,
			"byteOffset":14016,
			"target":34963
		}
	],
	"buffers":[
		{
			"byteLength":16800,
			"uri":"StainlessSteelChair.bin"
		}
	]
}
