{
	"asset":{
		"generator":"Khronos glTF Blender I/O v3.5.30",
		"version":"2.0"
	},
	"extensionsUsed":[
		"KHR_materials_specular",
		"KHR_materials_ior"
	],
	"scene":0,
	"scenes":[
		{
			"name":"Scene",
			"nodes":[
				0,
				1,
				2
			]
		}
	],
	"nodes":[
		{
			"mesh":0,
			"name":"Chair_Odger_LP"
		},
		{
			"mesh":1,
			"name":"Chair_Odger_HP"
		},
		{
			"mesh":2,
			"name":"Chair_Odger_SHP"
		}
	],
	"materials":[
		{
			"doubleSided":true,
			"extensions":{
				"KHR_materials_specular":{
					"specularColorFactor":[
						1,
						1,
						1
					]
				},
				"KHR_materials_ior":{
					"ior":1
				}
			},
			"name":"ID1",
			"pbrMetallicRoughness":{}
		}
	],
	"meshes":[
		{
			"name":"Cube.008",
			"primitives":[
				{
					"attributes":{
						"POSITION":0,
						"TEXCOORD_0":1,
						"NORMAL":2
					},
					"indices":3,
					"material":0
				}
			]
		},
		{
			"name":"Cube.000",
			"primitives":[
				{
					"attributes":{
						"POSITION":4,
						"TEXCOORD_0":5,
						"NORMAL":6
					},
					"indices":3,
					"material":0
				}
			]
		},
		{
			"name":"Cube.005",
			"primitives":[
				{
					"attributes":{
						"POSITION":7,
						"TEXCOORD_0":8,
						"NORMAL":9
					},
					"indices":3,
					"material":0
				}
			]
		}
	],
	"accessors":[
		{
			"bufferView":0,
			"componentType":5126,
			"count":1231,
			"max":[
				0.22392840683460236,
				0.8011478185653687,
				0.22845859825611115
			],
			"min":[
				-0.22392840683460236,
				0,
				-0.2556073069572449
			],
			"type":"VEC3"
		},
		{
			"bufferView":1,
			"componentType":5126,
			"count":1231,
			"type":"VEC2"
		},
		{
			"bufferView":2,
			"componentType":5126,
			"count":1231,
			"type":"VEC3"
		},
		{
			"bufferView":3,
			"componentType":5123,
			"count":6672,
			"type":"SCALAR"
		},
		{
			"bufferView":4,
			"componentType":5126,
			"count":1231,
			"max":[
				0.22392840683460236,
				0.8011478185653687,
				0.22845859825611115
			],
			"min":[
				-0.22392840683460236,
				0,
				-0.2556073069572449
			],
			"type":"VEC3"
		},
		{
			"bufferView":5,
			"componentType":5126,
			"count":1231,
			"type":"VEC2"
		},
		{
			"bufferView":6,
			"componentType":5126,
			"count":1231,
			"type":"VEC3"
		},
		{
			"bufferView":7,
			"componentType":5126,
			"count":1231,
			"max":[
				0.22392840683460236,
				0.8011478185653687,
				0.22845859825611115
			],
			"min":[
				-0.22392840683460236,
				0,
				-0.2556073069572449
			],
			"type":"VEC3"
		},
		{
			"bufferView":8,
			"componentType":5126,
			"count":1231,
			"type":"VEC2"
		},
		{
			"bufferView":9,
			"componentType":5126,
			"count":1231,
			"type":"VEC3"
		}
	],
	"bufferViews":[
		{
			"buffer":0,
			"byteLength":14772,
			"byteOffset":0,
			"target":34962
		},
		{
			"buffer":0,
			"byteLength":9848,
			"byteOffset":14772,
			"target":34962
		},
		{
			"buffer":0,
			"byteLength":14772,
			"byteOffset":24620,
			"target":34962
		},
		{
			"buffer":0,
			"byteLength":13344,
			"byteOffset":39392,
			"target":34963
		},
		{
			"buffer":0,
			"byteLength":14772,
			"byteOffset":52736,
			"target":34962
		},
		{
			"buffer":0,
			"byteLength":9848,
			"byteOffset":67508,
			"target":34962
		},
		{
			"buffer":0,
			"byteLength":14772,
			"byteOffset":77356,
			"target":34962
		},
		{
			"buffer":0,
			"byteLength":14772,
			"byteOffset":92128,
			"target":34962
		},
		{
			"buffer":0,
			"byteLength":9848,
			"byteOffset":106900,
			"target":34962
		},
		{
			"buffer":0,
			"byteLength":14772,
			"byteOffset":116748,
			"target":34962
		}
	],
	"buffers":[
		{
			"byteLength":131520,
			"uri":"UdyearChair.bin"
		}
	]
}
