{
	"asset":{
		"generator":"Khronos glTF Blender I/O v3.5.30",
		"version":"2.0"
	},
	"scene":0,
	"scenes":[
		{
			"name":"Scene",
			"nodes":[
				0,
				1,
				2
			]
		}
	],
	"nodes":[
		{
			"mesh":0,
			"name":"Karlby Counter Top",
			"scale":[
				2.198611259460449,
				2.198611259460449,
				2.198611259460449
			],
			"translation":[
				0,
				1.2932299375534058,
				0
			]
		},
		{
			"mesh":1,
			"name":"Alex Unit",
			"rotation":[
				0,
				-0.7071067094802856,
				0,
				0.7071068286895752
			],
			"scale":[
				2.198611259460449,
				2.198611259460449,
				2.198611259460449
			],
			"translation":[
				0,
				-0.28719955682754517,
				1.5390279293060303
			]
		},
		{
			"mesh":2,
			"name":"Alex Unit.001",
			"rotation":[
				0,
				-0.7071067094802856,
				0,
				0.7071068286895752
			],
			"scale":[
				2.198611259460449,
				2.198611259460449,
				2.198611259460449
			],
			"translation":[
				0,
				-0.28719955682754517,
				-1.5390279293060303
			]
		}
	],
	"materials":[
		{
			"doubleSided":true,
			"name":"wood_table_worn",
			"pbrMetallicRoughness":{
				"metallicFactor":0
			}
		},
		{
			"doubleSided":true,
			"name":"ALEX",
			"pbrMetallicRoughness":{
				"baseColorFactor":[
					0.800000011920929,
					0.800000011920929,
					0.800000011920929,
					1
				],
				"metallicFactor":0,
				"roughnessFactor":0.5
			}
		},
		{
			"doubleSided":true,
			"name":"Legs",
			"pbrMetallicRoughness":{
				"baseColorFactor":[
					0,
					0,
					0,
					1
				],
				"metallicFactor":0,
				"roughnessFactor":0.8999999761581421
			}
		}
	],
	"meshes":[
		{
			"name":"Plane",
			"primitives":[
				{
					"attributes":{
						"POSITION":0,
						"TEXCOORD_0":1,
						"NORMAL":2
					},
					"indices":3,
					"material":0
				}
			]
		},
		{
			"name":"ALEX_Frame.001",
			"primitives":[
				{
					"attributes":{
						"POSITION":4,
						"TEXCOORD_0":5,
						"NORMAL":6
					},
					"indices":7,
					"material":1
				},
				{
					"attributes":{
						"POSITION":8,
						"TEXCOORD_0":9,
						"NORMAL":10
					},
					"indices":11,
					"material":2
				}
			]
		},
		{
			"name":"ALEX_Frame.002",
			"primitives":[
				{
					"attributes":{
						"POSITION":12,
						"TEXCOORD_0":13,
						"NORMAL":14
					},
					"indices":7,
					"material":1
				},
				{
					"attributes":{
						"POSITION":15,
						"TEXCOORD_0":16,
						"NORMAL":17
					},
					"indices":11,
					"material":2
				}
			]
		}
	],
	"accessors":[
		{
			"bufferView":0,
			"componentType":5126,
			"count":24,
			"max":[
				0.3174999952316284,
				0.019050000235438347,
				0.9398000240325928
			],
			"min":[
				-0.3174999952316284,
				-0.019050000235438347,
				-0.9398000240325928
			],
			"type":"VEC3"
		},
		{
			"bufferView":1,
			"componentType":5126,
			"count":24,
			"type":"VEC2"
		},
		{
			"bufferView":2,
			"componentType":5126,
			"count":24,
			"type":"VEC3"
		},
		{
			"bufferView":3,
			"componentType":5123,
			"count":36,
			"type":"SCALAR"
		},
		{
			"bufferView":4,
			"componentType":5126,
			"count":11788,
			"max":[
				0.17999999225139618,
				0.7000002861022949,
				0.28999999165534973
			],
			"min":[
				-0.18000011146068573,
				0.010000050067901611,
				-0.29000014066696167
			],
			"type":"VEC3"
		},
		{
			"bufferView":5,
			"componentType":5126,
			"count":11788,
			"type":"VEC2"
		},
		{
			"bufferView":6,
			"componentType":5126,
			"count":11788,
			"type":"VEC3"
		},
		{
			"bufferView":7,
			"componentType":5123,
			"count":54504,
			"type":"SCALAR"
		},
		{
			"bufferView":8,
			"componentType":5126,
			"count":780,
			"max":[
				0.1614999920129776,
				0.6820001602172852,
				0.28899991512298584
			],
			"min":[
				-0.1614999920129776,
				1.4901161193847656e-07,
				-0.27000007033348083
			],
			"type":"VEC3"
		},
		{
			"bufferView":9,
			"componentType":5126,
			"count":780,
			"type":"VEC2"
		},
		{
			"bufferView":10,
			"componentType":5126,
			"count":780,
			"type":"VEC3"
		},
		{
			"bufferView":11,
			"componentType":5123,
			"count":4614,
			"type":"SCALAR"
		},
		{
			"bufferView":12,
			"componentType":5126,
			"count":11788,
			"max":[
				0.17999999225139618,
				0.7000002861022949,
				0.28999999165534973
			],
			"min":[
				-0.18000011146068573,
				0.010000050067901611,
				-0.29000014066696167
			],
			"type":"VEC3"
		},
		{
			"bufferView":13,
			"componentType":5126,
			"count":11788,
			"type":"VEC2"
		},
		{
			"bufferView":14,
			"componentType":5126,
			"count":11788,
			"type":"VEC3"
		},
		{
			"bufferView":15,
			"componentType":5126,
			"count":780,
			"max":[
				0.1614999920129776,
				0.6820001602172852,
				0.28899991512298584
			],
			"min":[
				-0.1614999920129776,
				1.4901161193847656e-07,
				-0.27000007033348083
			],
			"type":"VEC3"
		},
		{
			"bufferView":16,
			"componentType":5126,
			"count":780,
			"type":"VEC2"
		},
		{
			"bufferView":17,
			"componentType":5126,
			"count":780,
			"type":"VEC3"
		}
	],
	"bufferViews":[
		{
			"buffer":0,
			"byteLength":288,
			"byteOffset":0,
			"target":34962
		},
		{
			"buffer":0,
			"byteLength":192,
			"byteOffset":288,
			"target":34962
		},
		{
			"buffer":0,
			"byteLength":288,
			"byteOffset":480,
			"target":34962
		},
		{
			"buffer":0,
			"byteLength":72,
			"byteOffset":768,
			"target":34963
		},
		{
			"buffer":0,
			"byteLength":141456,
			"byteOffset":840,
			"target":34962
		},
		{
			"buffer":0,
			"byteLength":94304,
			"byteOffset":142296,
			"target":34962
		},
		{
			"buffer":0,
			"byteLength":141456,
			"byteOffset":236600,
			"target":34962
		},
		{
			"buffer":0,
			"byteLength":109008,
			"byteOffset":378056,
			"target":34963
		},
		{
			"buffer":0,
			"byteLength":9360,
			"byteOffset":487064,
			"target":34962
		},
		{
			"buffer":0,
			"byteLength":6240,
			"byteOffset":496424,
			"target":34962
		},
		{
			"buffer":0,
			"byteLength":9360,
			"byteOffset":502664,
			"target":34962
		},
		{
			"buffer":0,
			"byteLength":9228,
			"byteOffset":512024,
			"target":34963
		},
		{
			"buffer":0,
			"byteLength":141456,
			"byteOffset":521252,
			"target":34962
		},
		{
			"buffer":0,
			"byteLength":94304,
			"byteOffset":662708,
			"target":34962
		},
		{
			"buffer":0,
			"byteLength":141456,
			"byteOffset":757012,
			"target":34962
		},
		{
			"buffer":0,
			"byteLength":9360,
			"byteOffset":898468,
			"target":34962
		},
		{
			"buffer":0,
			"byteLength":6240,
			"byteOffset":907828,
			"target":34962
		},
		{
			"buffer":0,
			"byteLength":9360,
			"byteOffset":914068,
			"target":34962
		}
	],
	"buffers":[
		{
			"byteLength":923428,
			"uri":"LAGKAPTEN.bin"
		}
	]
}
