{
	"asset":{
		"generator":"Khronos glTF Blender I/O v3.5.30",
		"version":"2.0"
	},
	"scene":0,
	"scenes":[
		{
			"name":"Scene",
			"nodes":[
				0,
				1,
				2
			]
		}
	],
	"nodes":[
		{
			"mesh":0,
			"name":"Cylinder",
			"rotation":[
				0,
				0.22444093227386475,
				0,
				0.9744877219200134
			],
			"scale":[
				2.7374908924102783,
				2.8946151733398438,
				2.7374908924102783
			],
			"translation":[
				0.17939631640911102,
				0.9530760049819946,
				-0.11074399948120117
			]
		},
		{
			"mesh":1,
			"name":"Cube",
			"rotation":[
				0,
				0.22444096207618713,
				0,
				0.9744877815246582
			],
			"scale":[
				2.8946151733398438,
				2.8946151733398438,
				2.8946151733398438
			],
			"translation":[
				-0.2884417474269867,
				0.500242292881012,
				1.2406005859375
			]
		},
		{
			"mesh":2,
			"name":"Cube.001",
			"rotation":[
				0,
				0.22444093227386475,
				0,
				0.9744877219200134
			],
			"scale":[
				3.325756788253784,
				3.325756788253784,
				3.325756788253784
			],
			"translation":[
				-0.28936126828193665,
				0.8378546833992004,
				1.2348482608795166
			]
		}
	],
	"materials":[
		{
			"doubleSided":true,
			"name":"Material.001",
			"pbrMetallicRoughness":{
				"metallicFactor":0
			}
		}
	],
	"meshes":[
		{
			"name":"Cylinder.002",
			"primitives":[
				{
					"attributes":{
						"POSITION":0,
						"TEXCOORD_0":1,
						"NORMAL":2
					},
					"indices":3,
					"material":0
				}
			]
		},
		{
			"name":"Cube",
			"primitives":[
				{
					"attributes":{
						"POSITION":4,
						"TEXCOORD_0":5,
						"NORMAL":6
					},
					"indices":7,
					"material":0
				}
			]
		},
		{
			"name":"Cube.001",
			"primitives":[
				{
					"attributes":{
						"POSITION":8,
						"TEXCOORD_0":9,
						"NORMAL":10
					},
					"indices":11,
					"material":0
				}
			]
		}
	],
	"accessors":[
		{
			"bufferView":0,
			"componentType":5126,
			"count":2590,
			"max":[
				0.7381953001022339,
				0.013380618765950203,
				0.7381960153579712
			],
			"min":[
				-0.7381969094276428,
				-0.013380618765950203,
				-0.7381962537765503
			],
			"type":"VEC3"
		},
		{
			"bufferView":1,
			"componentType":5126,
			"count":2590,
			"type":"VEC2"
		},
		{
			"bufferView":2,
			"componentType":5126,
			"count":2590,
			"type":"VEC3"
		},
		{
			"bufferView":3,
			"componentType":5123,
			"count":13668,
			"type":"SCALAR"
		},
		{
			"bufferView":4,
			"componentType":5126,
			"count":5144,
			"max":[
				0.8071249127388,
				0.11663462221622467,
				0.09412244707345963
			],
			"min":[
				-0.10801779478788376,
				-0.6730706095695496,
				-0.7923524975776672
			],
			"type":"VEC3"
		},
		{
			"bufferView":5,
			"componentType":5126,
			"count":5144,
			"type":"VEC2"
		},
		{
			"bufferView":6,
			"componentType":5126,
			"count":5144,
			"type":"VEC3"
		},
		{
			"bufferView":7,
			"componentType":5123,
			"count":26112,
			"type":"SCALAR"
		},
		{
			"bufferView":8,
			"componentType":5126,
			"count":3656,
			"max":[
				0.6623870134353638,
				0.027649560943245888,
				0.08872845023870468
			],
			"min":[
				-0.054926060140132904,
				-0.025681454688310623,
				-0.6930894255638123
			],
			"type":"VEC3"
		},
		{
			"bufferView":9,
			"componentType":5126,
			"count":3656,
			"type":"VEC2"
		},
		{
			"bufferView":10,
			"componentType":5126,
			"count":3656,
			"type":"VEC3"
		},
		{
			"bufferView":11,
			"componentType":5123,
			"count":18432,
			"type":"SCALAR"
		}
	],
	"bufferViews":[
		{
			"buffer":0,
			"byteLength":31080,
			"byteOffset":0,
			"target":34962
		},
		{
			"buffer":0,
			"byteLength":20720,
			"byteOffset":31080,
			"target":34962
		},
		{
			"buffer":0,
			"byteLength":31080,
			"byteOffset":51800,
			"target":34962
		},
		{
			"buffer":0,
			"byteLength":27336,
			"byteOffset":82880,
			"target":34963
		},
		{
			"buffer":0,
			"byteLength":61728,
			"byteOffset":110216,
			"target":34962
		},
		{
			"buffer":0,
			"byteLength":41152,
			"byteOffset":171944,
			"target":34962
		},
		{
			"buffer":0,
			"byteLength":61728,
			"byteOffset":213096,
			"target":34962
		},
		{
			"buffer":0,
			"byteLength":52224,
			"byteOffset":274824,
			"target":34963
		},
		{
			"buffer":0,
			"byteLength":43872,
			"byteOffset":327048,
			"target":34962
		},
		{
			"buffer":0,
			"byteLength":29248,
			"byteOffset":370920,
			"target":34962
		},
		{
			"buffer":0,
			"byteLength":43872,
			"byteOffset":400168,
			"target":34962
		},
		{
			"buffer":0,
			"byteLength":36864,
			"byteOffset":444040,
			"target":34963
		}
	],
	"buffers":[
		{
			"byteLength":480904,
			"uri":"RoundTable.bin"
		}
	]
}
