{
	"asset":{
		"generator":"Khronos glTF Blender I/O v3.5.30",
		"version":"2.0"
	},
	"scene":0,
	"scenes":[
		{
			"name":"Scene",
			"nodes":[
				0,
				1,
				2
			]
		}
	],
	"nodes":[
		{
			"mesh":0,
			"name":"Cylinder",
			"rotation":[
				0,
				0.22444093227386475,
				0,
				0.9744877219200134
			],
			"scale":[
				4.638708591461182,
				4.904957294464111,
				4.638708591461182
			],
			"translation":[
				0.3962216377258301,
				1.084582805633545,
				-0.7350946664810181
			]
		},
		{
			"mesh":1,
			"name":"Cube",
			"rotation":[
				0,
				0.22444091737270355,
				0,
				0.9744877219200134
			],
			"scale":[
				4.904956817626953,
				4.904957294464111,
				4.904956817626953
			],
			"translation":[
				-0.39653509855270386,
				0.31725114583969116,
				1.5547734498977661
			]
		},
		{
			"mesh":2,
			"name":"Cube.001",
			"rotation":[
				0,
				0.22444094717502594,
				0,
				0.9744877219200134
			],
			"scale":[
				5.635531425476074,
				5.635531425476074,
				5.635531425476074
			],
			"translation":[
				-0.39809322357177734,
				0.889339029788971,
				1.5450260639190674
			]
		}
	],
	"materials":[
		{
			"doubleSided":true,
			"name":"Material.001",
			"pbrMetallicRoughness":{
				"metallicFactor":0
			}
		}
	],
	"meshes":[
		{
			"name":"Cylinder.002",
			"primitives":[
				{
					"attributes":{
						"POSITION":0,
						"TEXCOORD_0":1,
						"NORMAL":2
					},
					"indices":3,
					"material":0
				}
			]
		},
		{
			"name":"Cube",
			"primitives":[
				{
					"attributes":{
						"POSITION":4,
						"TEXCOORD_0":5,
						"NORMAL":6
					},
					"indices":7,
					"material":0
				}
			]
		},
		{
			"name":"Cube.001",
			"primitives":[
				{
					"attributes":{
						"POSITION":8,
						"TEXCOORD_0":9,
						"NORMAL":10
					},
					"indices":11,
					"material":0
				}
			]
		}
	],
	"accessors":[
		{
			"bufferView":0,
			"componentType":5126,
			"count":2590,
			"max":[
				0.7381953001022339,
				0.013380618765950203,
				0.7381960153579712
			],
			"min":[
				-0.7381969094276428,
				-0.013380618765950203,
				-0.7381962537765503
			],
			"type":"VEC3"
		},
		{
			"bufferView":1,
			"componentType":5126,
			"count":2590,
			"type":"VEC2"
		},
		{
			"bufferView":2,
			"componentType":5126,
			"count":2590,
			"type":"VEC3"
		},
		{
			"bufferView":3,
			"componentType":5123,
			"count":13668,
			"type":"SCALAR"
		},
		{
			"bufferView":4,
			"componentType":5126,
			"count":5144,
			"max":[
				0.8071249127388,
				0.11663462221622467,
				0.09412244707345963
			],
			"min":[
				-0.10801779478788376,
				-0.6730706095695496,
				-0.7923524975776672
			],
			"type":"VEC3"
		},
		{
			"bufferView":5,
			"componentType":5126,
			"count":5144,
			"type":"VEC2"
		},
		{
			"bufferView":6,
			"componentType":5126,
			"count":5144,
			"type":"VEC3"
		},
		{
			"bufferView":7,
			"componentType":5123,
			"count":26112,
			"type":"SCALAR"
		},
		{
			"bufferView":8,
			"componentType":5126,
			"count":3656,
			"max":[
				0.6623870134353638,
				0.027649560943245888,
				0.08872845023870468
			],
			"min":[
				-0.054926060140132904,
				-0.025681454688310623,
				-0.6930894255638123
			],
			"type":"VEC3"
		},
		{
			"bufferView":9,
			"componentType":5126,
			"count":3656,
			"type":"VEC2"
		},
		{
			"bufferView":10,
			"componentType":5126,
			"count":3656,
			"type":"VEC3"
		},
		{
			"bufferView":11,
			"componentType":5123,
			"count":18432,
			"type":"SCALAR"
		}
	],
	"bufferViews":[
		{
			"buffer":0,
			"byteLength":31080,
			"byteOffset":0,
			"target":34962
		},
		{
			"buffer":0,
			"byteLength":20720,
			"byteOffset":31080,
			"target":34962
		},
		{
			"buffer":0,
			"byteLength":31080,
			"byteOffset":51800,
			"target":34962
		},
		{
			"buffer":0,
			"byteLength":27336,
			"byteOffset":82880,
			"target":34963
		},
		{
			"buffer":0,
			"byteLength":61728,
			"byteOffset":110216,
			"target":34962
		},
		{
			"buffer":0,
			"byteLength":41152,
			"byteOffset":171944,
			"target":34962
		},
		{
			"buffer":0,
			"byteLength":61728,
			"byteOffset":213096,
			"target":34962
		},
		{
			"buffer":0,
			"byteLength":52224,
			"byteOffset":274824,
			"target":34963
		},
		{
			"buffer":0,
			"byteLength":43872,
			"byteOffset":327048,
			"target":34962
		},
		{
			"buffer":0,
			"byteLength":29248,
			"byteOffset":370920,
			"target":34962
		},
		{
			"buffer":0,
			"byteLength":43872,
			"byteOffset":400168,
			"target":34962
		},
		{
			"buffer":0,
			"byteLength":36864,
			"byteOffset":444040,
			"target":34963
		}
	],
	"buffers":[
		{
			"byteLength":480904,
			"uri":"RoundTable.bin"
		}
	]
}
