{
    "asset" : {
        "generator" : "Khronos glTF Blender I/O v3.4.50",
        "version" : "2.0"
    },
    "scene" : 0,
    "scenes" : [
        {
            "name" : "Scene",
            "nodes" : [
                0
            ]
        }
    ],
    "nodes" : [
        {
            "mesh" : 0,
            "name" : "Cube",
            "scale" : [
                1.1181474924087524,
                3.089205503463745,
                3.243844509124756
            ],
            "translation" : [
                -0.9746475219726562,
                3.1489453315734863,
                -0.5046062469482422
            ]
        }
    ],
    "materials" : [
        {
            "doubleSided" : true,
            "name" : "Material",
            "pbrMetallicRoughness" : {
                "baseColorFactor" : [
                    0.800000011920929,
                    0.800000011920929,
                    0.800000011920929,
                    1
                ],
                "metallicFactor" : 0,
                "roughnessFactor" : 0.5
            }
        }
    ],
    "meshes" : [
        {
            "name" : "Cube",
            "primitives" : [
                {
                    "attributes" : {
                        "POSITION" : 0,
                        "TEXCOORD_0" : 1,
                        "NORMAL" : 2
                    },
                    "indices" : 3,
                    "material" : 0
                }
            ]
        }
    ],
    "accessors" : [
        {
            "bufferView" : 0,
            "componentType" : 5126,
            "count" : 944,
            "max" : [
                1.1074353456497192,
                1,
                1
            ],
            "min" : [
                -1,
                -1.034555196762085,
                -1
            ],
            "type" : "VEC3"
        },
        {
            "bufferView" : 1,
            "componentType" : 5126,
            "count" : 944,
            "type" : "VEC2"
        },
        {
            "bufferView" : 2,
            "componentType" : 5126,
            "count" : 944,
            "type" : "VEC3"
        },
        {
            "bufferView" : 3,
            "componentType" : 5123,
            "count" : 1212,
            "type" : "SCALAR"
        }
    ],
    "bufferViews" : [
        {
            "buffer" : 0,
            "byteLength" : 11328,
            "byteOffset" : 0,
            "target" : 34962
        },
        {
            "buffer" : 0,
            "byteLength" : 7552,
            "byteOffset" : 11328,
            "target" : 34962
        },
        {
            "buffer" : 0,
            "byteLength" : 11328,
            "byteOffset" : 18880,
            "target" : 34962
        },
        {
            "buffer" : 0,
            "byteLength" : 2424,
            "byteOffset" : 30208,
            "target" : 34963
        }
    ],
    "buffers" : [
        {
            "byteLength" : 32632,
            "uri" : "data:application/octet-stream;base64,"
        }
    ]
}
