{
	"asset":{
		"generator":"Khronos glTF Blender I/O v3.5.30",
		"version":"2.0"
	},
	"scene":0,
	"scenes":[
		{
			"name":"Scene",
			"nodes":[
				0,
				1,
				2,
				3,
				4,
				5,
				6,
				7,
				8,
				9,
				10,
				11,
				12
			]
		}
	],
	"nodes":[
		{
			"mesh":0,
			"name":"Cube",
			"scale":[
				1.5212234258651733,
				1.5212234258651733,
				1.5212234258651733
			],
			"translation":[
				-0.5019062161445618,
				0.2494955062866211,
				0.6583203077316284
			]
		},
		{
			"mesh":1,
			"name":"Cube.001",
			"scale":[
				0.06439930200576782,
				0.5286383032798767,
				0.09124913066625595
			],
			"translation":[
				1.151556134223938,
				5.562443733215332,
				-1.7310285568237305
			]
		},
		{
			"mesh":2,
			"name":"Cube.002",
			"scale":[
				0.03830829635262489,
				0.016046535223722458,
				0.03777800127863884
			],
			"translation":[
				1.04938542842865,
				6.043388366699219,
				-1.7310285568237305
			]
		},
		{
			"mesh":3,
			"name":"Cube.003",
			"scale":[
				0.03830829635262489,
				0.016046535223722458,
				0.03777800127863884
			],
			"translation":[
				1.04938542842865,
				5.120956897735596,
				-1.7310285568237305
			]
		},
		{
			"mesh":4,
			"name":"Cube.004",
			"scale":[
				0.03830829635262489,
				0.016046535223722458,
				0.03777800127863884
			],
			"translation":[
				1.04938542842865,
				5.120956897735596,
				-1.0902609825134277
			]
		},
		{
			"mesh":5,
			"name":"Cube.005",
			"scale":[
				0.03830829635262489,
				0.016046535223722458,
				0.03777800127863884
			],
			"translation":[
				1.04938542842865,
				6.043388366699219,
				-1.0902609825134277
			]
		},
		{
			"mesh":6,
			"name":"Cube.006",
			"scale":[
				0.06439930200576782,
				0.5286383032798767,
				0.09124913066625595
			],
			"translation":[
				1.151556134223938,
				5.562443733215332,
				-1.0902609825134277
			]
		},
		{
			"mesh":7,
			"name":"Cube.007",
			"rotation":[
				0.7071068286895752,
				0,
				0,
				0.7071068286895752
			],
			"scale":[
				0.06439930200576782,
				0.6201953291893005,
				0.062409110367298126
			],
			"translation":[
				1.1546891927719116,
				0.19050931930541992,
				-3.029076099395752
			]
		},
		{
			"mesh":8,
			"name":"Cube.008",
			"rotation":[
				0.7071068286895752,
				0,
				0,
				0.7071068286895752
			],
			"scale":[
				0.03830829635262489,
				0.018825704231858253,
				0.025837961584329605
			],
			"translation":[
				1.052518606185913,
				0.19050931930541992,
				-2.4648337364196777
			]
		},
		{
			"mesh":9,
			"name":"Cube.009",
			"rotation":[
				0.7071068286895752,
				0,
				0,
				0.7071068286895752
			],
			"scale":[
				0.03830829635262489,
				0.018825704231858253,
				0.025837961584329605
			],
			"translation":[
				1.052518606185913,
				0.19050931930541992,
				-3.5470261573791504
			]
		},
		{
			"mesh":10,
			"name":"Cube.010",
			"rotation":[
				0.7071068286895752,
				0,
				0,
				0.7071068286895752
			],
			"scale":[
				0.06439930200576782,
				0.6201953291893005,
				0.062409110367298126
			],
			"translation":[
				1.1546891927719116,
				0.19050931930541992,
				0.1269371509552002
			]
		},
		{
			"mesh":11,
			"name":"Cube.011",
			"rotation":[
				0.7071068286895752,
				0,
				0,
				0.7071068286895752
			],
			"scale":[
				0.03830829635262489,
				0.018825704231858253,
				0.025837961584329605
			],
			"translation":[
				1.052518606185913,
				0.19050931930541992,
				0.6911795139312744
			]
		},
		{
			"mesh":12,
			"name":"Cube.012",
			"rotation":[
				0.7071068286895752,
				0,
				0,
				0.7071068286895752
			],
			"scale":[
				0.03830829635262489,
				0.018825704231858253,
				0.025837961584329605
			],
			"translation":[
				1.052518606185913,
				0.19050931930541992,
				-0.3910127878189087
			]
		}
	],
	"materials":[
		{
			"doubleSided":true,
			"name":"\u0434\u0432\u0435\u0440\u0438",
			"pbrMetallicRoughness":{
				"metallicFactor":0,
				"roughnessFactor":0.5
			}
		},
		{
			"doubleSided":true,
			"name":"\u043e\u0441\u0442",
			"pbrMetallicRoughness":{
				"baseColorFactor":[
					0,
					0,
					0,
					1
				],
				"metallicFactor":0,
				"roughnessFactor":0.5
			}
		},
		{
			"doubleSided":true,
			"name":"Material.001",
			"pbrMetallicRoughness":{
				"baseColorFactor":[
					0,
					0,
					0,
					1
				],
				"metallicFactor":0,
				"roughnessFactor":0.5
			}
		},
		{
			"doubleSided":true,
			"name":"\u0440\u0443\u043a\u0430",
			"pbrMetallicRoughness":{
				"baseColorFactor":[
					0.000509965349920094,
					0.0003679078072309494,
					0.0005154777900315821,
					1
				],
				"metallicFactor":0,
				"roughnessFactor":0.5
			}
		},
		{
			"doubleSided":true,
			"name":"Material.003",
			"pbrMetallicRoughness":{
				"baseColorFactor":[
					0,
					0,
					0,
					1
				],
				"metallicFactor":0,
				"roughnessFactor":0.5
			}
		},
		{
			"doubleSided":true,
			"name":"Material.004",
			"pbrMetallicRoughness":{
				"baseColorFactor":[
					0,
					0,
					0,
					1
				],
				"metallicFactor":0,
				"roughnessFactor":0.5
			}
		},
		{
			"doubleSided":true,
			"name":"\u0440\u0443\u0447\u043a\u0438.001",
			"pbrMetallicRoughness":{
				"baseColorFactor":[
					0,
					0,
					0,
					1
				],
				"metallicFactor":0,
				"roughnessFactor":0.5
			}
		},
		{
			"doubleSided":true,
			"name":"\u0440\u0443\u0447\u043a\u04382",
			"pbrMetallicRoughness":{
				"baseColorFactor":[
					0.02624122053384781,
					0.02518685907125473,
					0.024157628417015076,
					1
				],
				"roughnessFactor":0.5
			}
		},
		{
			"doubleSided":true,
			"name":"Material.005",
			"pbrMetallicRoughness":{
				"baseColorFactor":[
					0,
					0,
					0,
					1
				],
				"metallicFactor":0,
				"roughnessFactor":0.5
			}
		},
		{
			"doubleSided":true,
			"name":"\u0440\u0443\u0447\u043a\u0438",
			"pbrMetallicRoughness":{
				"baseColorFactor":[
					0,
					0,
					0,
					1
				],
				"metallicFactor":0,
				"roughnessFactor":0.5
			}
		},
		{
			"doubleSided":true,
			"name":"Material.009",
			"pbrMetallicRoughness":{
				"baseColorFactor":[
					0,
					0,
					0,
					1
				],
				"metallicFactor":0,
				"roughnessFactor":0.5
			}
		},
		{
			"doubleSided":true,
			"name":"Material.006",
			"pbrMetallicRoughness":{
				"baseColorFactor":[
					0,
					0,
					0,
					1
				],
				"metallicFactor":0,
				"roughnessFactor":0.5
			}
		},
		{
			"doubleSided":true,
			"name":"Material.007",
			"pbrMetallicRoughness":{
				"baseColorFactor":[
					0,
					0,
					0,
					1
				],
				"metallicFactor":0,
				"roughnessFactor":0.5
			}
		},
		{
			"doubleSided":true,
			"name":"Material.008",
			"pbrMetallicRoughness":{
				"baseColorFactor":[
					0,
					0,
					0,
					1
				],
				"metallicFactor":0,
				"roughnessFactor":0.5
			}
		}
	],
	"meshes":[
		{
			"name":"Cube.001",
			"primitives":[
				{
					"attributes":{
						"POSITION":0,
						"TEXCOORD_0":1,
						"NORMAL":2
					},
					"indices":3,
					"material":0
				},
				{
					"attributes":{
						"POSITION":4,
						"TEXCOORD_0":5,
						"NORMAL":6
					},
					"indices":7,
					"material":1
				}
			]
		},
		{
			"name":"Cube.002",
			"primitives":[
				{
					"attributes":{
						"POSITION":8,
						"TEXCOORD_0":9,
						"NORMAL":10
					},
					"indices":11,
					"material":2
				}
			]
		},
		{
			"name":"Cube.003",
			"primitives":[
				{
					"attributes":{
						"POSITION":12,
						"TEXCOORD_0":13,
						"NORMAL":14
					},
					"indices":11,
					"material":3
				}
			]
		},
		{
			"name":"Cube.004",
			"primitives":[
				{
					"attributes":{
						"POSITION":15,
						"TEXCOORD_0":16,
						"NORMAL":17
					},
					"indices":11,
					"material":4
				}
			]
		},
		{
			"name":"Cube.005",
			"primitives":[
				{
					"attributes":{
						"POSITION":18,
						"TEXCOORD_0":19,
						"NORMAL":20
					},
					"indices":11,
					"material":5
				}
			]
		},
		{
			"name":"Cube.006",
			"primitives":[
				{
					"attributes":{
						"POSITION":21,
						"TEXCOORD_0":22,
						"NORMAL":23
					},
					"indices":11,
					"material":6
				}
			]
		},
		{
			"name":"Cube.007",
			"primitives":[
				{
					"attributes":{
						"POSITION":24,
						"TEXCOORD_0":25,
						"NORMAL":26
					},
					"indices":11,
					"material":7
				}
			]
		},
		{
			"name":"Cube.014",
			"primitives":[
				{
					"attributes":{
						"POSITION":27,
						"TEXCOORD_0":28,
						"NORMAL":29
					},
					"indices":11,
					"material":8
				}
			]
		},
		{
			"name":"Cube.015",
			"primitives":[
				{
					"attributes":{
						"POSITION":30,
						"TEXCOORD_0":31,
						"NORMAL":32
					},
					"indices":11,
					"material":9
				}
			]
		},
		{
			"name":"Cube.016",
			"primitives":[
				{
					"attributes":{
						"POSITION":33,
						"TEXCOORD_0":34,
						"NORMAL":35
					},
					"indices":11,
					"material":10
				}
			]
		},
		{
			"name":"Cube.011",
			"primitives":[
				{
					"attributes":{
						"POSITION":36,
						"TEXCOORD_0":37,
						"NORMAL":38
					},
					"indices":11,
					"material":11
				}
			]
		},
		{
			"name":"Cube.012",
			"primitives":[
				{
					"attributes":{
						"POSITION":39,
						"TEXCOORD_0":40,
						"NORMAL":41
					},
					"indices":11,
					"material":12
				}
			]
		},
		{
			"name":"Cube.013",
			"primitives":[
				{
					"attributes":{
						"POSITION":42,
						"TEXCOORD_0":43,
						"NORMAL":44
					},
					"indices":11,
					"material":13
				}
			]
		}
	],
	"accessors":[
		{
			"bufferView":0,
			"componentType":5126,
			"count":259,
			"max":[
				1.0308204889297485,
				7.056889057159424,
				0.7774092555046082
			],
			"min":[
				-1,
				-1,
				-3.724200487136841
			],
			"type":"VEC3"
		},
		{
			"bufferView":1,
			"componentType":5126,
			"count":259,
			"type":"VEC2"
		},
		{
			"bufferView":2,
			"componentType":5126,
			"count":259,
			"type":"VEC3"
		},
		{
			"bufferView":3,
			"componentType":5123,
			"count":510,
			"type":"SCALAR"
		},
		{
			"bufferView":4,
			"componentType":5126,
			"count":207,
			"max":[
				1.0308204889297485,
				7.056889057159424,
				1.051491618156433
			],
			"min":[
				-1,
				-1,
				-3.724200487136841
			],
			"type":"VEC3"
		},
		{
			"bufferView":5,
			"componentType":5126,
			"count":207,
			"type":"VEC2"
		},
		{
			"bufferView":6,
			"componentType":5126,
			"count":207,
			"type":"VEC3"
		},
		{
			"bufferView":7,
			"componentType":5123,
			"count":540,
			"type":"SCALAR"
		},
		{
			"bufferView":8,
			"componentType":5126,
			"count":24,
			"max":[
				1,
				1,
				1
			],
			"min":[
				-1,
				-1,
				-1
			],
			"type":"VEC3"
		},
		{
			"bufferView":9,
			"componentType":5126,
			"count":24,
			"type":"VEC2"
		},
		{
			"bufferView":10,
			"componentType":5126,
			"count":24,
			"type":"VEC3"
		},
		{
			"bufferView":11,
			"componentType":5123,
			"count":36,
			"type":"SCALAR"
		},
		{
			"bufferView":12,
			"componentType":5126,
			"count":24,
			"max":[
				1,
				1,
				1
			],
			"min":[
				-1,
				-1,
				-1
			],
			"type":"VEC3"
		},
		{
			"bufferView":13,
			"componentType":5126,
			"count":24,
			"type":"VEC2"
		},
		{
			"bufferView":14,
			"componentType":5126,
			"count":24,
			"type":"VEC3"
		},
		{
			"bufferView":15,
			"componentType":5126,
			"count":24,
			"max":[
				1,
				1,
				1
			],
			"min":[
				-1,
				-1,
				-1
			],
			"type":"VEC3"
		},
		{
			"bufferView":16,
			"componentType":5126,
			"count":24,
			"type":"VEC2"
		},
		{
			"bufferView":17,
			"componentType":5126,
			"count":24,
			"type":"VEC3"
		},
		{
			"bufferView":18,
			"componentType":5126,
			"count":24,
			"max":[
				1,
				1,
				1
			],
			"min":[
				-1,
				-1,
				-1
			],
			"type":"VEC3"
		},
		{
			"bufferView":19,
			"componentType":5126,
			"count":24,
			"type":"VEC2"
		},
		{
			"bufferView":20,
			"componentType":5126,
			"count":24,
			"type":"VEC3"
		},
		{
			"bufferView":21,
			"componentType":5126,
			"count":24,
			"max":[
				1,
				1,
				1
			],
			"min":[
				-1,
				-1,
				-1
			],
			"type":"VEC3"
		},
		{
			"bufferView":22,
			"componentType":5126,
			"count":24,
			"type":"VEC2"
		},
		{
			"bufferView":23,
			"componentType":5126,
			"count":24,
			"type":"VEC3"
		},
		{
			"bufferView":24,
			"componentType":5126,
			"count":24,
			"max":[
				1,
				1,
				1
			],
			"min":[
				-1,
				-1,
				-1
			],
			"type":"VEC3"
		},
		{
			"bufferView":25,
			"componentType":5126,
			"count":24,
			"type":"VEC2"
		},
		{
			"bufferView":26,
			"componentType":5126,
			"count":24,
			"type":"VEC3"
		},
		{
			"bufferView":27,
			"componentType":5126,
			"count":24,
			"max":[
				1,
				1,
				1
			],
			"min":[
				-1,
				-1,
				-1
			],
			"type":"VEC3"
		},
		{
			"bufferView":28,
			"componentType":5126,
			"count":24,
			"type":"VEC2"
		},
		{
			"bufferView":29,
			"componentType":5126,
			"count":24,
			"type":"VEC3"
		},
		{
			"bufferView":30,
			"componentType":5126,
			"count":24,
			"max":[
				1,
				1,
				1
			],
			"min":[
				-1,
				-1,
				-1
			],
			"type":"VEC3"
		},
		{
			"bufferView":31,
			"componentType":5126,
			"count":24,
			"type":"VEC2"
		},
		{
			"bufferView":32,
			"componentType":5126,
			"count":24,
			"type":"VEC3"
		},
		{
			"bufferView":33,
			"componentType":5126,
			"count":24,
			"max":[
				1,
				1,
				1
			],
			"min":[
				-1,
				-1,
				-1
			],
			"type":"VEC3"
		},
		{
			"bufferView":34,
			"componentType":5126,
			"count":24,
			"type":"VEC2"
		},
		{
			"bufferView":35,
			"componentType":5126,
			"count":24,
			"type":"VEC3"
		},
		{
			"bufferView":36,
			"componentType":5126,
			"count":24,
			"max":[
				1,
				1,
				1
			],
			"min":[
				-1,
				-1,
				-1
			],
			"type":"VEC3"
		},
		{
			"bufferView":37,
			"componentType":5126,
			"count":24,
			"type":"VEC2"
		},
		{
			"bufferView":38,
			"componentType":5126,
			"count":24,
			"type":"VEC3"
		},
		{
			"bufferView":39,
			"componentType":5126,
			"count":24,
			"max":[
				1,
				1,
				1
			],
			"min":[
				-1,
				-1,
				-1
			],
			"type":"VEC3"
		},
		{
			"bufferView":40,
			"componentType":5126,
			"count":24,
			"type":"VEC2"
		},
		{
			"bufferView":41,
			"componentType":5126,
			"count":24,
			"type":"VEC3"
		},
		{
			"bufferView":42,
			"componentType":5126,
			"count":24,
			"max":[
				1,
				1,
				1
			],
			"min":[
				-1,
				-1,
				-1
			],
			"type":"VEC3"
		},
		{
			"bufferView":43,
			"componentType":5126,
			"count":24,
			"type":"VEC2"
		},
		{
			"bufferView":44,
			"componentType":5126,
			"count":24,
			"type":"VEC3"
		}
	],
	"bufferViews":[
		{
			"buffer":0,
			"byteLength":3108,
			"byteOffset":0,
			"target":34962
		},
		{
			"buffer":0,
			"byteLength":2072,
			"byteOffset":3108,
			"target":34962
		},
		{
			"buffer":0,
			"byteLength":3108,
			"byteOffset":5180,
			"target":34962
		},
		{
			"buffer":0,
			"byteLength":1020,
			"byteOffset":8288,
			"target":34963
		},
		{
			"buffer":0,
			"byteLength":2484,
			"byteOffset":9308,
			"target":34962
		},
		{
			"buffer":0,
			"byteLength":1656,
			"byteOffset":11792,
			"target":34962
		},
		{
			"buffer":0,
			"byteLength":2484,
			"byteOffset":13448,
			"target":34962
		},
		{
			"buffer":0,
			"byteLength":1080,
			"byteOffset":15932,
			"target":34963
		},
		{
			"buffer":0,
			"byteLength":288,
			"byteOffset":17012,
			"target":34962
		},
		{
			"buffer":0,
			"byteLength":192,
			"byteOffset":17300,
			"target":34962
		},
		{
			"buffer":0,
			"byteLength":288,
			"byteOffset":17492,
			"target":34962
		},
		{
			"buffer":0,
			"byteLength":72,
			"byteOffset":17780,
			"target":34963
		},
		{
			"buffer":0,
			"byteLength":288,
			"byteOffset":17852,
			"target":34962
		},
		{
			"buffer":0,
			"byteLength":192,
			"byteOffset":18140,
			"target":34962
		},
		{
			"buffer":0,
			"byteLength":288,
			"byteOffset":18332,
			"target":34962
		},
		{
			"buffer":0,
			"byteLength":288,
			"byteOffset":18620,
			"target":34962
		},
		{
			"buffer":0,
			"byteLength":192,
			"byteOffset":18908,
			"target":34962
		},
		{
			"buffer":0,
			"byteLength":288,
			"byteOffset":19100,
			"target":34962
		},
		{
			"buffer":0,
			"byteLength":288,
			"byteOffset":19388,
			"target":34962
		},
		{
			"buffer":0,
			"byteLength":192,
			"byteOffset":19676,
			"target":34962
		},
		{
			"buffer":0,
			"byteLength":288,
			"byteOffset":19868,
			"target":34962
		},
		{
			"buffer":0,
			"byteLength":288,
			"byteOffset":20156,
			"target":34962
		},
		{
			"buffer":0,
			"byteLength":192,
			"byteOffset":20444,
			"target":34962
		},
		{
			"buffer":0,
			"byteLength":288,
			"byteOffset":20636,
			"target":34962
		},
		{
			"buffer":0,
			"byteLength":288,
			"byteOffset":20924,
			"target":34962
		},
		{
			"buffer":0,
			"byteLength":192,
			"byteOffset":21212,
			"target":34962
		},
		{
			"buffer":0,
			"byteLength":288,
			"byteOffset":21404,
			"target":34962
		},
		{
			"buffer":0,
			"byteLength":288,
			"byteOffset":21692,
			"target":34962
		},
		{
			"buffer":0,
			"byteLength":192,
			"byteOffset":21980,
			"target":34962
		},
		{
			"buffer":0,
			"byteLength":288,
			"byteOffset":22172,
			"target":34962
		},
		{
			"buffer":0,
			"byteLength":288,
			"byteOffset":22460,
			"target":34962
		},
		{
			"buffer":0,
			"byteLength":192,
			"byteOffset":22748,
			"target":34962
		},
		{
			"buffer":0,
			"byteLength":288,
			"byteOffset":22940,
			"target":34962
		},
		{
			"buffer":0,
			"byteLength":288,
			"byteOffset":23228,
			"target":34962
		},
		{
			"buffer":0,
			"byteLength":192,
			"byteOffset":23516,
			"target":34962
		},
		{
			"buffer":0,
			"byteLength":288,
			"byteOffset":23708,
			"target":34962
		},
		{
			"buffer":0,
			"byteLength":288,
			"byteOffset":23996,
			"target":34962
		},
		{
			"buffer":0,
			"byteLength":192,
			"byteOffset":24284,
			"target":34962
		},
		{
			"buffer":0,
			"byteLength":288,
			"byteOffset":24476,
			"target":34962
		},
		{
			"buffer":0,
			"byteLength":288,
			"byteOffset":24764,
			"target":34962
		},
		{
			"buffer":0,
			"byteLength":192,
			"byteOffset":25052,
			"target":34962
		},
		{
			"buffer":0,
			"byteLength":288,
			"byteOffset":25244,
			"target":34962
		},
		{
			"buffer":0,
			"byteLength":288,
			"byteOffset":25532,
			"target":34962
		},
		{
			"buffer":0,
			"byteLength":192,
			"byteOffset":25820,
			"target":34962
		},
		{
			"buffer":0,
			"byteLength":288,
			"byteOffset":26012,
			"target":34962
		}
	],
	"buffers":[
		{
			"byteLength":26300,
			"uri":"WardrobeLOFT.bin"
		}
	]
}
