{
	"asset":{
		"generator":"Khronos glTF Blender I/O v3.5.30",
		"version":"2.0"
	},
	"scene":0,
	"scenes":[
		{
			"name":"Scene",
			"nodes":[
				2
			]
		}
	],
	"nodes":[
		{
			"mesh":0,
			"name":"Cube.014",
			"translation":[
				1.81119966506958,
				0.9770961999893188,
				1.9039366245269775
			]
		},
		{
			"mesh":1,
			"name":"Cube.016",
			"translation":[
				0.18879985809326172,
				0.9770961999893188,
				1.8984836339950562
			]
		},
		{
			"children":[
				0,
				1
			],
			"mesh":2,
			"name":"Cube.017",
			"scale":[
				0.6467682719230652,
				1.1835858821868896,
				0.34925487637519836
			],
			"translation":[
				-0.905582070350647,
				0.014817076735198498,
				-0.9398586750030518
			]
		}
	],
	"materials":[
		{
			"doubleSided":true,
			"name":"Wood",
			"pbrMetallicRoughness":{}
		},
		{
			"doubleSided":true,
			"name":"Iron Bolts",
			"pbrMetallicRoughness":{}
		},
		{
			"doubleSided":true,
			"name":"Shiny bolts",
			"pbrMetallicRoughness":{}
		}
	],
	"meshes":[
		{
			"name":"Cube.014",
			"primitives":[
				{
					"attributes":{
						"POSITION":0,
						"TEXCOORD_0":1,
						"NORMAL":2
					},
					"indices":3,
					"material":0
				},
				{
					"attributes":{
						"POSITION":4,
						"TEXCOORD_0":5,
						"NORMAL":6
					},
					"indices":7,
					"material":1
				},
				{
					"attributes":{
						"POSITION":8,
						"TEXCOORD_0":9,
						"NORMAL":10
					},
					"indices":11,
					"material":2
				}
			]
		},
		{
			"name":"Cube.017",
			"primitives":[
				{
					"attributes":{
						"POSITION":12,
						"TEXCOORD_0":13,
						"NORMAL":14
					},
					"indices":15,
					"material":0
				},
				{
					"attributes":{
						"POSITION":16,
						"TEXCOORD_0":17,
						"NORMAL":18
					},
					"indices":19,
					"material":1
				},
				{
					"attributes":{
						"POSITION":20,
						"TEXCOORD_0":21,
						"NORMAL":22
					},
					"indices":23,
					"material":2
				}
			]
		},
		{
			"name":"Cube.023",
			"primitives":[
				{
					"attributes":{
						"POSITION":24,
						"TEXCOORD_0":25,
						"NORMAL":26
					},
					"indices":27,
					"material":0
				},
				{
					"attributes":{
						"POSITION":28,
						"TEXCOORD_0":29,
						"NORMAL":30
					},
					"indices":31,
					"material":1
				},
				{
					"attributes":{
						"POSITION":32,
						"TEXCOORD_0":33,
						"NORMAL":34
					},
					"indices":35,
					"material":2
				}
			]
		}
	],
	"accessors":[
		{
			"bufferView":0,
			"componentType":5126,
			"count":388,
			"max":[
				-0.0023560523986816406,
				0.853272020816803,
				0.033047500997781754
			],
			"min":[
				-0.8429923057556152,
				-0.860073447227478,
				-0.1701851487159729
			],
			"type":"VEC3"
		},
		{
			"bufferView":1,
			"componentType":5126,
			"count":388,
			"type":"VEC2"
		},
		{
			"bufferView":2,
			"componentType":5126,
			"count":388,
			"type":"VEC3"
		},
		{
			"bufferView":3,
			"componentType":5123,
			"count":936,
			"type":"SCALAR"
		},
		{
			"bufferView":4,
			"componentType":5126,
			"count":1388,
			"max":[
				-0.003429889678955078,
				0.7136052846908569,
				0.031316325068473816
			],
			"min":[
				-0.7594547867774963,
				-0.7957051396369934,
				-0.00231267511844635
			],
			"type":"VEC3"
		},
		{
			"bufferView":5,
			"componentType":5126,
			"count":1388,
			"type":"VEC2"
		},
		{
			"bufferView":6,
			"componentType":5126,
			"count":1388,
			"type":"VEC3"
		},
		{
			"bufferView":7,
			"componentType":5123,
			"count":3072,
			"type":"SCALAR"
		},
		{
			"bufferView":8,
			"componentType":5126,
			"count":544,
			"max":[
				-0.01489710807800293,
				0.7073732614517212,
				0.0026972293853759766
			],
			"min":[
				-0.744878351688385,
				-0.7894729971885681,
				-0.0026920586824417114
			],
			"type":"VEC3"
		},
		{
			"bufferView":9,
			"componentType":5126,
			"count":544,
			"type":"VEC2"
		},
		{
			"bufferView":10,
			"componentType":5126,
			"count":544,
			"type":"VEC3"
		},
		{
			"bufferView":11,
			"componentType":5123,
			"count":2304,
			"type":"SCALAR"
		},
		{
			"bufferView":12,
			"componentType":5126,
			"count":364,
			"max":[
				0.8100659251213074,
				0.8532721400260925,
				0.009146302938461304
			],
			"min":[
				0.0023560523986816406,
				-0.8600735664367676,
				-0.1647321581840515
			],
			"type":"VEC3"
		},
		{
			"bufferView":13,
			"componentType":5126,
			"count":364,
			"type":"VEC2"
		},
		{
			"bufferView":14,
			"componentType":5126,
			"count":364,
			"type":"VEC3"
		},
		{
			"bufferView":15,
			"componentType":5123,
			"count":828,
			"type":"SCALAR"
		},
		{
			"bufferView":16,
			"componentType":5126,
			"count":1388,
			"max":[
				0.7606275081634521,
				0.7136052250862122,
				0.036769311875104904
			],
			"min":[
				0.003429800271987915,
				-0.7957053184509277,
				0.0031403126195073128
			],
			"type":"VEC3"
		},
		{
			"bufferView":17,
			"componentType":5126,
			"count":1388,
			"type":"VEC2"
		},
		{
			"bufferView":18,
			"componentType":5126,
			"count":1388,
			"type":"VEC3"
		},
		{
			"bufferView":19,
			"componentType":5123,
			"count":3072,
			"type":"SCALAR"
		},
		{
			"bufferView":20,
			"componentType":5126,
			"count":544,
			"max":[
				0.7460510730743408,
				0.7073732018470764,
				0.008150193840265274
			],
			"min":[
				0.014897100627422333,
				-0.7894731760025024,
				0.0027609290555119514
			],
			"type":"VEC3"
		},
		{
			"bufferView":21,
			"componentType":5126,
			"count":544,
			"type":"VEC2"
		},
		{
			"bufferView":22,
			"componentType":5126,
			"count":544,
			"type":"VEC3"
		},
		{
			"bufferView":23,
			"componentType":5123,
			"count":2304,
			"type":"SCALAR"
		},
		{
			"bufferView":24,
			"componentType":5126,
			"count":912,
			"max":[
				2.008625030517578,
				1.9828879833221436,
				2.03145694732666
			],
			"min":[
				-0.008625030517578125,
				-2.9802322387695312e-08,
				0
			],
			"type":"VEC3"
		},
		{
			"bufferView":25,
			"componentType":5126,
			"count":912,
			"type":"VEC2"
		},
		{
			"bufferView":26,
			"componentType":5126,
			"count":912,
			"type":"VEC3"
		},
		{
			"bufferView":27,
			"componentType":5123,
			"count":2070,
			"type":"SCALAR"
		},
		{
			"bufferView":28,
			"componentType":5126,
			"count":3692,
			"max":[
				1.8933101892471313,
				1.692898154258728,
				1.9124137163162231
			],
			"min":[
				0.10668981075286865,
				0.1794147789478302,
				1.8954589366912842
			],
			"type":"VEC3"
		},
		{
			"bufferView":29,
			"componentType":5126,
			"count":3692,
			"type":"VEC2"
		},
		{
			"bufferView":30,
			"componentType":5126,
			"count":3692,
			"type":"VEC3"
		},
		{
			"bufferView":31,
			"componentType":5123,
			"count":8784,
			"type":"SCALAR"
		},
		{
			"bufferView":32,
			"componentType":5126,
			"count":2592,
			"max":[
				1.881843090057373,
				1.6845908164978027,
				1.9062559604644775
			],
			"min":[
				0.11815696954727173,
				0.18751826882362366,
				1.9012136459350586
			],
			"type":"VEC3"
		},
		{
			"bufferView":33,
			"componentType":5126,
			"count":2592,
			"type":"VEC2"
		},
		{
			"bufferView":34,
			"componentType":5126,
			"count":2592,
			"type":"VEC3"
		},
		{
			"bufferView":35,
			"componentType":5123,
			"count":6912,
			"type":"SCALAR"
		}
	],
	"bufferViews":[
		{
			"buffer":0,
			"byteLength":4656,
			"byteOffset":0,
			"target":34962
		},
		{
			"buffer":0,
			"byteLength":3104,
			"byteOffset":4656,
			"target":34962
		},
		{
			"buffer":0,
			"byteLength":4656,
			"byteOffset":7760,
			"target":34962
		},
		{
			"buffer":0,
			"byteLength":1872,
			"byteOffset":12416,
			"target":34963
		},
		{
			"buffer":0,
			"byteLength":16656,
			"byteOffset":14288,
			"target":34962
		},
		{
			"buffer":0,
			"byteLength":11104,
			"byteOffset":30944,
			"target":34962
		},
		{
			"buffer":0,
			"byteLength":16656,
			"byteOffset":42048,
			"target":34962
		},
		{
			"buffer":0,
			"byteLength":6144,
			"byteOffset":58704,
			"target":34963
		},
		{
			"buffer":0,
			"byteLength":6528,
			"byteOffset":64848,
			"target":34962
		},
		{
			"buffer":0,
			"byteLength":4352,
			"byteOffset":71376,
			"target":34962
		},
		{
			"buffer":0,
			"byteLength":6528,
			"byteOffset":75728,
			"target":34962
		},
		{
			"buffer":0,
			"byteLength":4608,
			"byteOffset":82256,
			"target":34963
		},
		{
			"buffer":0,
			"byteLength":4368,
			"byteOffset":86864,
			"target":34962
		},
		{
			"buffer":0,
			"byteLength":2912,
			"byteOffset":91232,
			"target":34962
		},
		{
			"buffer":0,
			"byteLength":4368,
			"byteOffset":94144,
			"target":34962
		},
		{
			"buffer":0,
			"byteLength":1656,
			"byteOffset":98512,
			"target":34963
		},
		{
			"buffer":0,
			"byteLength":16656,
			"byteOffset":100168,
			"target":34962
		},
		{
			"buffer":0,
			"byteLength":11104,
			"byteOffset":116824,
			"target":34962
		},
		{
			"buffer":0,
			"byteLength":16656,
			"byteOffset":127928,
			"target":34962
		},
		{
			"buffer":0,
			"byteLength":6144,
			"byteOffset":144584,
			"target":34963
		},
		{
			"buffer":0,
			"byteLength":6528,
			"byteOffset":150728,
			"target":34962
		},
		{
			"buffer":0,
			"byteLength":4352,
			"byteOffset":157256,
			"target":34962
		},
		{
			"buffer":0,
			"byteLength":6528,
			"byteOffset":161608,
			"target":34962
		},
		{
			"buffer":0,
			"byteLength":4608,
			"byteOffset":168136,
			"target":34963
		},
		{
			"buffer":0,
			"byteLength":10944,
			"byteOffset":172744,
			"target":34962
		},
		{
			"buffer":0,
			"byteLength":7296,
			"byteOffset":183688,
			"target":34962
		},
		{
			"buffer":0,
			"byteLength":10944,
			"byteOffset":190984,
			"target":34962
		},
		{
			"buffer":0,
			"byteLength":4140,
			"byteOffset":201928,
			"target":34963
		},
		{
			"buffer":0,
			"byteLength":44304,
			"byteOffset":206068,
			"target":34962
		},
		{
			"buffer":0,
			"byteLength":29536,
			"byteOffset":250372,
			"target":34962
		},
		{
			"buffer":0,
			"byteLength":44304,
			"byteOffset":279908,
			"target":34962
		},
		{
			"buffer":0,
			"byteLength":17568,
			"byteOffset":324212,
			"target":34963
		},
		{
			"buffer":0,
			"byteLength":31104,
			"byteOffset":341780,
			"target":34962
		},
		{
			"buffer":0,
			"byteLength":20736,
			"byteOffset":372884,
			"target":34962
		},
		{
			"buffer":0,
			"byteLength":31104,
			"byteOffset":393620,
			"target":34962
		},
		{
			"buffer":0,
			"byteLength":13824,
			"byteOffset":424724,
			"target":34963
		}
	],
	"buffers":[
		{
			"byteLength":438548,
			"uri":"WardrobeVida.bin"
		}
	]
}
