{
	"asset":{
		"generator":"Khronos glTF Blender I/O v3.5.30",
		"version":"2.0"
	},
	"extensionsUsed":[
		"KHR_materials_clearcoat",
		"KHR_materials_specular",
		"KHR_materials_ior"
	],
	"scene":0,
	"scenes":[
		{
			"name":"Scene",
			"nodes":[
				0
			]
		}
	],
	"nodes":[
		{
			"mesh":0,
			"name":"Cupboard",
			"scale":[
				1.542586326599121,
				1.542586326599121,
				1.542586326599121
			],
			"translation":[
				0,
				0,
				-0.2530822455883026
			]
		}
	],
	"materials":[
		{
			"doubleSided":true,
			"extensions":{
				"KHR_materials_clearcoat":{
					"clearcoatFactor":0.1507936418056488,
					"clearcoatRoughnessFactor":0.029999999329447746
				},
				"KHR_materials_specular":{
					"specularColorFactor":[
						0.7679266505321404,
						0.7679266505321404,
						0.7679266505321404
					]
				},
				"KHR_materials_ior":{
					"ior":1.4500000476837158
				}
			},
			"name":"cupboard",
			"pbrMetallicRoughness":{
				"baseColorFactor":[
					0.7563479542732239,
					0.7563479542732239,
					0.7563479542732239,
					1
				],
				"metallicFactor":0,
				"roughnessFactor":0.20334693789482117
			}
		},
		{
			"doubleSided":true,
			"extensions":{
				"KHR_materials_specular":{
					"specularColorFactor":[
						1.1289838985542557,
						1.0989934980164597,
						1.0157975850795251
					]
				},
				"KHR_materials_ior":{
					"ior":1.4500000476837158
				}
			},
			"name":"cupboard_handle",
			"pbrMetallicRoughness":{
				"baseColorFactor":[
					1,
					0.936694324016571,
					0.7610790133476257,
					1
				],
				"roughnessFactor":0.5
			}
		}
	],
	"meshes":[
		{
			"name":"Cube.001",
			"primitives":[
				{
					"attributes":{
						"POSITION":0,
						"TEXCOORD_0":1,
						"NORMAL":2
					},
					"indices":3,
					"material":0
				},
				{
					"attributes":{
						"POSITION":4,
						"TEXCOORD_0":5,
						"NORMAL":6
					},
					"indices":7,
					"material":1
				}
			]
		}
	],
	"accessors":[
		{
			"bufferView":0,
			"componentType":5126,
			"count":1601,
			"max":[
				0.5042348504066467,
				2.2470734119415283,
				0.7503048181533813
			],
			"min":[
				-0.49440091848373413,
				0.004040873609483242,
				0.0006905145710334182
			],
			"type":"VEC3"
		},
		{
			"bufferView":1,
			"componentType":5126,
			"count":1601,
			"type":"VEC2"
		},
		{
			"bufferView":2,
			"componentType":5126,
			"count":1601,
			"type":"VEC3"
		},
		{
			"bufferView":3,
			"componentType":5123,
			"count":4536,
			"type":"SCALAR"
		},
		{
			"bufferView":4,
			"componentType":5126,
			"count":2012,
			"max":[
				0.05550675466656685,
				1.218263030052185,
				0.7340672612190247
			],
			"min":[
				-0.049774568527936935,
				1.187569260597229,
				0.6982755064964294
			],
			"type":"VEC3"
		},
		{
			"bufferView":5,
			"componentType":5126,
			"count":2012,
			"type":"VEC2"
		},
		{
			"bufferView":6,
			"componentType":5126,
			"count":2012,
			"type":"VEC3"
		},
		{
			"bufferView":7,
			"componentType":5123,
			"count":9792,
			"type":"SCALAR"
		}
	],
	"bufferViews":[
		{
			"buffer":0,
			"byteLength":19212,
			"byteOffset":0,
			"target":34962
		},
		{
			"buffer":0,
			"byteLength":12808,
			"byteOffset":19212,
			"target":34962
		},
		{
			"buffer":0,
			"byteLength":19212,
			"byteOffset":32020,
			"target":34962
		},
		{
			"buffer":0,
			"byteLength":9072,
			"byteOffset":51232,
			"target":34963
		},
		{
			"buffer":0,
			"byteLength":24144,
			"byteOffset":60304,
			"target":34962
		},
		{
			"buffer":0,
			"byteLength":16096,
			"byteOffset":84448,
			"target":34962
		},
		{
			"buffer":0,
			"byteLength":24144,
			"byteOffset":100544,
			"target":34962
		},
		{
			"buffer":0,
			"byteLength":19584,
			"byteOffset":124688,
			"target":34963
		}
	],
	"buffers":[
		{
			"byteLength":144272,
			"uri":"WardrobeTwoDoors.bin"
		}
	]
}
