{
  "accessors": [
    {
      "bufferView": 2,
      "componentType": 5126,
      "count": 488,
      "max": [
        4.600419044494629,
        -5.949934005737305,
        0.15275900065898895
      ],
      "min": [
        1.0229439735412598,
        -9.178093910217285,
        -0.009233999997377396
      ],
      "type": "VEC3"
    },
    {
      "bufferView": 2,
      "byteOffset": 5856,
      "componentType": 5126,
      "count": 488,
      "max": [
        0.9979497790336609,
        0.9997196197509766,
        -0.0019644054118543863
      ],
      "min": [
        -0.9997122287750244,
        -0.9984132647514343,
        -0.9997507929801941
      ],
      "type": "VEC3"
    },
    {
      "bufferView": 1,
      "componentType": 5126,
      "count": 488,
      "max": [
        0.9099169969558716,
        0.36493900418281555
      ],
      "min": [
        0.08525999635457993,
        0.040095001459121704
      ],
      "type": "VEC2"
    },
    {
      "bufferView": 0,
      "componentType": 5125,
      "count": 684,
      "type": "SCALAR"
    },
    {
      "bufferView": 2,
      "byteOffset": 11712,
      "componentType": 5126,
      "count": 65534,
      "max": [
        5.496626853942871,
        -6.4979729652404785,
        7.334897994995117
      ],
      "min": [
        1.4510689973831177,
        -10.224332809448242,
        -0.004091000184416771
      ],
      "type": "VEC3"
    },
    {
      "bufferView": 2,
      "byteOffset": 798120,
      "componentType": 5126,
      "count": 65534,
      "max": [
        0.9999985098838806,
        0.9998536705970764,
        0.9999843835830688
      ],
      "min": [
        -0.9999816417694092,
        -0.9999979734420776,
        -0.9999921321868896
      ],
      "type": "VEC3"
    },
    {
      "bufferView": 1,
      "byteOffset": 3904,
      "componentType": 5126,
      "count": 65534,
      "max": [
        0.9986979961395264,
        0.9876059889793396
      ],
      "min": [
        0.001088000019080937,
        0.0009879999561235309
      ],
      "type": "VEC2"
    },
    {
      "bufferView": 0,
      "byteOffset": 2736,
      "componentType": 5125,
      "count": 66558,
      "type": "SCALAR"
    },
    {
      "bufferView": 2,
      "byteOffset": 1584528,
      "componentType": 5126,
      "count": 65532,
      "max": [
        5.254511833190918,
        -5.971099853515625,
        3.8718490600585938
      ],
      "min": [
        1.0358020067214966,
        -9.100300788879395,
        0.010204999707639217
      ],
      "type": "VEC3"
    },
    {
      "bufferView": 2,
      "byteOffset": 2370912,
      "componentType": 5126,
      "count": 65532,
      "max": [
        0.9999662637710571,
        0.9999997615814209,
        0.9999527335166931
      ],
      "min": [
        -0.9999794960021973,
        -0.9999257326126099,
        -0.9999567866325378
      ],
      "type": "VEC3"
    },
    {
      "bufferView": 1,
      "byteOffset": 528176,
      "componentType": 5126,
      "count": 65532,
      "max": [
        0.9987329840660095,
        0.9420589804649353
      ],
      "min": [
        0.0013299999991431832,
        0.0007820000173524022
      ],
      "type": "VEC2"
    },
    {
      "bufferView": 0,
      "byteOffset": 268968,
      "componentType": 5125,
      "count": 65532,
      "type": "SCALAR"
    },
    {
      "bufferView": 2,
      "byteOffset": 3157296,
      "componentType": 5126,
      "count": 65532,
      "max": [
        5.493649959564209,
        -5.949934005737305,
        1.976531982421875
      ],
      "min": [
        1.0229439735412598,
        -10.470534324645996,
        -0.040908001363277435
      ],
      "type": "VEC3"
    },
    {
      "bufferView": 2,
      "byteOffset": 3943680,
      "componentType": 5126,
      "count": 65532,
      "max": [
        0.999997615814209,
        0.9999998807907104,
        0.9999841451644897
      ],
      "min": [
        -0.9999991059303284,
        -0.9999996423721313,
        -0.999840497970581
      ],
      "type": "VEC3"
    },
    {
      "bufferView": 1,
      "byteOffset": 1052432,
      "componentType": 5126,
      "count": 65532,
      "max": [
        0.95830899477005,
        0.9888070225715637
      ],
      "min": [
        0.007668999955058098,
        0.009463000111281872
      ],
      "type": "VEC2"
    },
    {
      "bufferView": 0,
      "byteOffset": 531096,
      "componentType": 5125,
      "count": 65532,
      "type": "SCALAR"
    },
    {
      "bufferView": 2,
      "byteOffset": 4730064,
      "componentType": 5126,
      "count": 65532,
      "max": [
        5.549698829650879,
        -5.949277877807617,
        3.2178139686584473
      ],
      "min": [
        1.6221909523010254,
        -10.44991683959961,
        -0.013628999702632427
      ],
      "type": "VEC3"
    },
    {
      "bufferView": 2,
      "byteOffset": 5516448,
      "componentType": 5126,
      "count": 65532,
      "max": [
        0.9999962449073792,
        0.9999989867210388,
        0.9999867677688599
      ],
      "min": [
        -0.9965133666992188,
        -0.9999948740005493,
        -0.9997411370277405
      ],
      "type": "VEC3"
    },
    {
      "bufferView": 1,
      "byteOffset": 1576688,
      "componentType": 5126,
      "count": 65532,
      "max": [
        0.9984509944915771,
        0.9987170100212097
      ],
      "min": [
        0.0025690000038594007,
        0.006266999989748001
      ],
      "type": "VEC2"
    },
    {
      "bufferView": 0,
      "byteOffset": 793224,
      "componentType": 5125,
      "count": 65532,
      "type": "SCALAR"
    },
    {
      "bufferView": 2,
      "byteOffset": 6302832,
      "componentType": 5126,
      "count": 65532,
      "max": [
        4.7896199226379395,
        -7.441094875335693,
        5.178677082061768
      ],
      "min": [
        1.5050090551376343,
        -10.174531936645508,
        0.8063650131225586
      ],
      "type": "VEC3"
    },
    {
      "bufferView": 2,
      "byteOffset": 7089216,
      "componentType": 5126,
      "count": 65532,
      "max": [
        0.9998973608016968,
        0.9998282194137573,
        0.9999804496765137
      ],
      "min": [
        -0.9999960064888,
        -0.9999833703041077,
        -0.9998179078102112
      ],
      "type": "VEC3"
    },
    {
      "bufferView": 1,
      "byteOffset": 2100944,
      "componentType": 5126,
      "count": 65532,
      "max": [
        0.9975100159645081,
        0.9980069994926453
      ],
      "min": [
        0.0017930000321939588,
        0.02933800034224987
      ],
      "type": "VEC2"
    },
    {
      "bufferView": 0,
      "byteOffset": 1055352,
      "componentType": 5125,
      "count": 65532,
      "type": "SCALAR"
    },
    {
      "bufferView": 2,
      "byteOffset": 7875600,
      "componentType": 5126,
      "count": 65532,
      "max": [
        5.48290491104126,
        -5.949277877807617,
        7.3393778800964355
      ],
      "min": [
        1.0430749654769897,
        -10.458672523498535,
        -0.027101000770926476
      ],
      "type": "VEC3"
    },
    {
      "bufferView": 2,
      "byteOffset": 8661984,
      "componentType": 5126,
      "count": 65532,
      "max": [
        0.9999979734420776,
        0.9999996423721313,
        0.9999996423721313
      ],
      "min": [
        -0.999995231628418,
        -0.9999692440032959,
        -0.9998886585235596
      ],
      "type": "VEC3"
    },
    {
      "bufferView": 1,
      "byteOffset": 2625200,
      "componentType": 5126,
      "count": 65532,
      "max": [
        0.9984440207481384,
        0.9871919751167297
      ],
      "min": [
        0.0010049999691545963,
        0.0015450000064447522
      ],
      "type": "VEC2"
    },
    {
      "bufferView": 0,
      "byteOffset": 1317480,
      "componentType": 5125,
      "count": 65532,
      "type": "SCALAR"
    },
    {
      "bufferView": 2,
      "byteOffset": 9448368,
      "componentType": 5126,
      "count": 15867,
      "max": [
        5.480165004730225,
        -7.008779048919678,
        3.28466796875
      ],
      "min": [
        1.8196680545806885,
        -10.445289611816406,
        -0.023399999365210533
      ],
      "type": "VEC3"
    },
    {
      "bufferView": 2,
      "byteOffset": 9638772,
      "componentType": 5126,
      "count": 15867,
      "max": [
        0.9999958872795105,
        0.9998946189880371,
        0.9999991059303284
      ],
      "min": [
        -0.9556467533111572,
        -0.9999982118606567,
        -0.994308352470398
      ],
      "type": "VEC3"
    },
    {
      "bufferView": 1,
      "byteOffset": 3149456,
      "componentType": 5126,
      "count": 15867,
      "max": [
        0.927977979183197,
        0.9041990041732788
      ],
      "min": [
        0.1258549988269806,
        0.11500900238752365
      ],
      "type": "VEC2"
    },
    {
      "bufferView": 0,
      "byteOffset": 1579608,
      "componentType": 5125,
      "count": 15867,
      "type": "SCALAR"
    }
  ],
  "asset": {
    "extras": {
      "author": "chaweemek (https://sketchfab.com/chaweemek)",
      "license": "CC-BY-4.0 (http://creativecommons.org/licenses/by/4.0/)",
      "source": "https://sketchfab.com/3d-models/cb4df0b877334d1582faa5cf0fe6e8c1",
      "title": "เจดีย์ทรงศรีวิชัยผสมลังกา วัดสระศรี สุโขทัย"
    },
    "generator": "Sketchfab-12.66.0",
    "version": "2.0"
  },
  "bufferViews": [
    {
      "buffer": 0,
      "byteLength": 1643076,
      "name": "floatBufferViews",
      "target": 34963
    },
    {
      "buffer": 0,
      "byteLength": 3276392,
      "byteOffset": 1643076,
      "byteStride": 8,
      "name": "floatBufferViews",
      "target": 34962
    },
    {
      "buffer": 0,
      "byteLength": 9829176,
      "byteOffset": 4919468,
      "byteStride": 12,
      "name": "floatBufferViews",
      "target": 34962
    }
  ],
  "buffers": [
    {
      "byteLength": 14748644,
      "uri": "scene.bin"
    }
  ],
  "images": [
    {
      "uri": "textures/wudsasri2wudsasri2_baseColor.jpeg"
    }
  ],
  "materials": [
    {
      "doubleSided": true,
      "name": "wudsasri2wudsasri2",
      "pbrMetallicRoughness": {
        "baseColorTexture": {
          "index": 0
        },
        "metallicFactor": 0.0
      }
    }
  ],
  "meshes": [
    {
      "name": "Object_0",
      "primitives": [
        {
          "attributes": {
            "NORMAL": 1,
            "POSITION": 0,
            "TEXCOORD_0": 2
          },
          "indices": 3,
          "material": 0,
          "mode": 4
        }
      ]
    },
    {
      "name": "Object_1",
      "primitives": [
        {
          "attributes": {
            "NORMAL": 5,
            "POSITION": 4,
            "TEXCOORD_0": 6
          },
          "indices": 7,
          "material": 0,
          "mode": 4
        }
      ]
    },
    {
      "name": "Object_2",
      "primitives": [
        {
          "attributes": {
            "NORMAL": 9,
            "POSITION": 8,
            "TEXCOORD_0": 10
          },
          "indices": 11,
          "material": 0,
          "mode": 4
        }
      ]
    },
    {
      "name": "Object_3",
      "primitives": [
        {
          "attributes": {
            "NORMAL": 13,
            "POSITION": 12,
            "TEXCOORD_0": 14
          },
          "indices": 15,
          "material": 0,
          "mode": 4
        }
      ]
    },
    {
      "name": "Object_4",
      "primitives": [
        {
          "attributes": {
            "NORMAL": 17,
            "POSITION": 16,
            "TEXCOORD_0": 18
          },
          "indices": 19,
          "material": 0,
          "mode": 4
        }
      ]
    },
    {
      "name": "Object_5",
      "primitives": [
        {
          "attributes": {
            "NORMAL": 21,
            "POSITION": 20,
            "TEXCOORD_0": 22
          },
          "indices": 23,
          "material": 0,
          "mode": 4
        }
      ]
    },
    {
      "name": "Object_6",
      "primitives": [
        {
          "attributes": {
            "NORMAL": 25,
            "POSITION": 24,
            "TEXCOORD_0": 26
          },
          "indices": 27,
          "material": 0,
          "mode": 4
        }
      ]
    },
    {
      "name": "Object_7",
      "primitives": [
        {
          "attributes": {
            "NORMAL": 29,
            "POSITION": 28,
            "TEXCOORD_0": 30
          },
          "indices": 31,
          "material": 0,
          "mode": 4
        }
      ]
    }
  ],
  "nodes": [
    {
      "children": [
        1
      ],
      "matrix": [
        -2.220446049250313e-16,
        2.220446049250313e-16,
        -1.0,
        0.0,
        -1.0,
        -4.930380657631324e-32,
        2.220446049250313e-16,
        0.0,
        0.0,
        1.0,
        2.220446049250313e-16,
        0.0,
        -4.923562526702881,
        -2.5526741822618415e-15,
        11.496222496032715,
        1.0
      ],
      "name": "Sketchfab_model"
    },
    {
      "children": [
        2,
        3,
        4,
        5,
        6,
        7,
        8,
        9
      ],
      "name": "Wudsasri2.obj.cleaner.materialmerger.gles"
    },
    {
      "mesh": 0,
      "name": "Object_2"
    },
    {
      "mesh": 1,
      "name": "Object_3"
    },
    {
      "mesh": 2,
      "name": "Object_4"
    },
    {
      "mesh": 3,
      "name": "Object_5"
    },
    {
      "mesh": 4,
      "name": "Object_6"
    },
    {
      "mesh": 5,
      "name": "Object_7"
    },
    {
      "mesh": 6,
      "name": "Object_8"
    },
    {
      "mesh": 7,
      "name": "Object_9"
    }
  ],
  "samplers": [
    {
      "magFilter": 9729,
      "minFilter": 9987,
      "wrapS": 10497,
      "wrapT": 10497
    }
  ],
  "scene": 0,
  "scenes": [
    {
      "name": "Sketchfab_Scene",
      "nodes": [
        0
      ]
    }
  ],
  "textures": [
    {
      "sampler": 0,
      "source": 0
    }
  ]
}
