{
  "accessors": [
    {
      "bufferView": 2,
      "componentType": 5126,
      "count": 65532,
      "max": [
        3.9405460357666016,
        4.128485679626465,
        3.1854681968688965
      ],
      "min": [
        -3.452730178833008,
        -4.242801189422607,
        -4.709827423095703
      ],
      "type": "VEC3"
    },
    {
      "bufferView": 2,
      "byteOffset": 786384,
      "componentType": 5126,
      "count": 65532,
      "max": [
        0.9999518394470215,
        0.9999542236328125,
        0.9998912811279297
      ],
      "min": [
        -0.9999650716781616,
        -0.9999648928642273,
        -0.9999666213989258
      ],
      "type": "VEC3"
    },
    {
      "bufferView": 1,
      "componentType": 5126,
      "count": 65532,
      "max": [
        0.999959409236908,
        0.9999908804893494
      ],
      "min": [
        5.692709237337112e-07,
        5.075708031654358e-08
      ],
      "type": "VEC2"
    },
    {
      "bufferView": 0,
      "componentType": 5125,
      "count": 301251,
      "type": "SCALAR"
    },
    {
      "bufferView": 2,
      "byteOffset": 1572768,
      "componentType": 5126,
      "count": 54501,
      "max": [
        3.930579662322998,
        4.158444881439209,
        3.3289432525634766
      ],
      "min": [
        -3.8920063972473145,
        -4.26104736328125,
        -4.93585205078125
      ],
      "type": "VEC3"
    },
    {
      "bufferView": 2,
      "byteOffset": 2226780,
      "componentType": 5126,
      "count": 54501,
      "max": [
        0.9999856352806091,
        0.9999728798866272,
        0.9999182224273682
      ],
      "min": [
        -0.9999989867210388,
        -0.9998774528503418,
        -0.9998320937156677
      ],
      "type": "VEC3"
    },
    {
      "bufferView": 1,
      "byteOffset": 524256,
      "componentType": 5126,
      "count": 54501,
      "max": [
        0.9999638795852661,
        0.9999987483024597
      ],
      "min": [
        6.663074600510299e-06,
        1.8731268482952146e-06
      ],
      "type": "VEC2"
    },
    {
      "bufferView": 0,
      "byteOffset": 1205004,
      "componentType": 5125,
      "count": 219420,
      "type": "SCALAR"
    },
    {
      "bufferView": 2,
      "byteOffset": 2880792,
      "componentType": 5126,
      "count": 65532,
      "max": [
        3.801468849182129,
        4.100187301635742,
        3.271739959716797
      ],
      "min": [
        -3.5334815979003906,
        -4.096987724304199,
        -4.1899003982543945
      ],
      "type": "VEC3"
    },
    {
      "bufferView": 2,
      "byteOffset": 3667176,
      "componentType": 5126,
      "count": 65532,
      "max": [
        0.9999778866767883,
        0.9998099207878113,
        0.9999812245368958
      ],
      "min": [
        -0.9999944567680359,
        -0.9999732375144958,
        -0.9997730851173401
      ],
      "type": "VEC3"
    },
    {
      "bufferView": 1,
      "byteOffset": 960264,
      "componentType": 5126,
      "count": 65532,
      "max": [
        0.9999100565910339,
        0.9999975562095642
      ],
      "min": [
        6.316404324024916e-06,
        7.905342727099196e-07
      ],
      "type": "VEC2"
    },
    {
      "bufferView": 0,
      "byteOffset": 2082684,
      "componentType": 5125,
      "count": 296079,
      "type": "SCALAR"
    },
    {
      "bufferView": 2,
      "byteOffset": 4453560,
      "componentType": 5126,
      "count": 55765,
      "max": [
        4.0688276290893555,
        4.285646438598633,
        3.4210710525512695
      ],
      "min": [
        -4.024704933166504,
        -4.3418965339660645,
        -4.864008903503418
      ],
      "type": "VEC3"
    },
    {
      "bufferView": 2,
      "byteOffset": 5122740,
      "componentType": 5126,
      "count": 55765,
      "max": [
        0.9999544620513916,
        0.9999566078186035,
        0.9999812245368958
      ],
      "min": [
        -0.9999939799308777,
        -0.9999523162841797,
        -0.9998525977134705
      ],
      "type": "VEC3"
    },
    {
      "bufferView": 1,
      "byteOffset": 1484520,
      "componentType": 5126,
      "count": 55765,
      "max": [
        0.9999688267707825,
        0.9999948740005493
      ],
      "min": [
        4.6710483729839325e-06,
        5.587935447692871e-08
      ],
      "type": "VEC2"
    },
    {
      "bufferView": 0,
      "byteOffset": 3267000,
      "componentType": 5125,
      "count": 231831,
      "type": "SCALAR"
    },
    {
      "bufferView": 2,
      "byteOffset": 5791920,
      "componentType": 5126,
      "count": 65532,
      "max": [
        4.197486877441406,
        4.128485679626465,
        3.338385581970215
      ],
      "min": [
        -3.769834518432617,
        -4.403402805328369,
        -4.457690238952637
      ],
      "type": "VEC3"
    },
    {
      "bufferView": 2,
      "byteOffset": 6578304,
      "componentType": 5126,
      "count": 65532,
      "max": [
        0.9999596476554871,
        0.9999821186065674,
        0.9998359084129333
      ],
      "min": [
        -0.9999912977218628,
        -0.999973475933075,
        -0.9997730851173401
      ],
      "type": "VEC3"
    },
    {
      "bufferView": 1,
      "byteOffset": 1930640,
      "componentType": 5126,
      "count": 65532,
      "max": [
        0.9999916553497314,
        0.9994981288909912
      ],
      "min": [
        1.2710706869256683e-05,
        4.632491618394852e-05
      ],
      "type": "VEC2"
    },
    {
      "bufferView": 0,
      "byteOffset": 4194324,
      "componentType": 5125,
      "count": 296973,
      "type": "SCALAR"
    },
    {
      "bufferView": 2,
      "byteOffset": 7364688,
      "componentType": 5126,
      "count": 54019,
      "max": [
        4.389035224914551,
        4.293760299682617,
        3.4004478454589844
      ],
      "min": [
        -4.131436347961426,
        -4.57615327835083,
        -4.867486000061035
      ],
      "type": "VEC3"
    },
    {
      "bufferView": 2,
      "byteOffset": 8012916,
      "componentType": 5126,
      "count": 54019,
      "max": [
        0.9999823570251465,
        0.9999503493309021,
        0.9999182224273682
      ],
      "min": [
        -0.9999992251396179,
        -0.999973475933075,
        -0.9995665550231934
      ],
      "type": "VEC3"
    },
    {
      "bufferView": 1,
      "byteOffset": 2454896,
      "componentType": 5126,
      "count": 54019,
      "max": [
        0.9999985694885254,
        0.9995089173316956
      ],
      "min": [
        6.622349701501662e-06,
        9.282026439905167e-06
      ],
      "type": "VEC2"
    },
    {
      "bufferView": 0,
      "byteOffset": 5382216,
      "componentType": 5125,
      "count": 214563,
      "type": "SCALAR"
    },
    {
      "bufferView": 2,
      "byteOffset": 8661144,
      "componentType": 5126,
      "count": 65532,
      "max": [
        4.2236738204956055,
        4.021167278289795,
        3.277444362640381
      ],
      "min": [
        -3.421048641204834,
        -4.211782932281494,
        -4.680413246154785
      ],
      "type": "VEC3"
    },
    {
      "bufferView": 2,
      "byteOffset": 9447528,
      "componentType": 5126,
      "count": 65532,
      "max": [
        0.9999638795852661,
        0.9999628067016602,
        0.9998749494552612
      ],
      "min": [
        -0.9999604225158691,
        -0.9996170401573181,
        -0.9999992251396179
      ],
      "type": "VEC3"
    },
    {
      "bufferView": 1,
      "byteOffset": 2887048,
      "componentType": 5126,
      "count": 65532,
      "max": [
        0.9999994039535522,
        0.9999977350234985
      ],
      "min": [
        1.5670666471123695e-06,
        7.566542535641929e-06
      ],
      "type": "VEC2"
    },
    {
      "bufferView": 0,
      "byteOffset": 6240468,
      "componentType": 5125,
      "count": 312183,
      "type": "SCALAR"
    },
    {
      "bufferView": 2,
      "byteOffset": 10233912,
      "componentType": 5126,
      "count": 52968,
      "max": [
        3.965721607208252,
        4.322098255157471,
        3.4213638305664063
      ],
      "min": [
        -3.8757452964782715,
        -4.189807415008545,
        -4.679006576538086
      ],
      "type": "VEC3"
    },
    {
      "bufferView": 2,
      "byteOffset": 10869528,
      "componentType": 5126,
      "count": 52968,
      "max": [
        0.9999823570251465,
        0.9999685883522034,
        0.999965250492096
      ],
      "min": [
        -0.9999989867210388,
        -0.9998541474342346,
        -0.9996312260627747
      ],
      "type": "VEC3"
    },
    {
      "bufferView": 1,
      "byteOffset": 3411304,
      "componentType": 5126,
      "count": 52968,
      "max": [
        0.9999976754188538,
        0.9999937415122986
      ],
      "min": [
        5.370413418859243e-06,
        8.04708832902179e-09
      ],
      "type": "VEC2"
    },
    {
      "bufferView": 0,
      "byteOffset": 7489200,
      "componentType": 5125,
      "count": 227115,
      "type": "SCALAR"
    }
  ],
  "asset": {
    "extras": {
      "author": "matousekfoto (https://sketchfab.com/matousekfoto)",
      "license": "CC-BY-4.0 (http://creativecommons.org/licenses/by/4.0/)",
      "source": "https://sketchfab.com/3d-models/tomb-of-tu-duc-77728a86ad1d4964824b63844d50bfe7",
      "title": "Tomb of Tu Duc"
    },
    "generator": "Sketchfab-12.67.0",
    "version": "2.0"
  },
  "bufferViews": [
    {
      "buffer": 0,
      "byteLength": 8397660,
      "name": "floatBufferViews",
      "target": 34963
    },
    {
      "buffer": 0,
      "byteLength": 3835048,
      "byteOffset": 8397660,
      "byteStride": 8,
      "name": "floatBufferViews",
      "target": 34962
    },
    {
      "buffer": 0,
      "byteLength": 11505144,
      "byteOffset": 12232708,
      "byteStride": 12,
      "name": "floatBufferViews",
      "target": 34962
    }
  ],
  "buffers": [
    {
      "byteLength": 23737852,
      "uri": "scene.bin"
    }
  ],
  "extensionsUsed": [
    "KHR_materials_unlit"
  ],
  "images": [
    {
      "uri": "textures/material1_baseColor.jpeg"
    },
    {
      "uri": "textures/material2_baseColor.jpeg"
    },
    {
      "uri": "textures/material3_baseColor.jpeg"
    },
    {
      "uri": "textures/material0_baseColor.jpeg"
    }
  ],
  "materials": [
    {
      "doubleSided": true,
      "extensions": {
        "KHR_materials_unlit": {}
      },
      "name": "material1",
      "pbrMetallicRoughness": {
        "baseColorTexture": {
          "index": 0
        },
        "metallicFactor": 0.0
      }
    },
    {
      "doubleSided": true,
      "extensions": {
        "KHR_materials_unlit": {}
      },
      "name": "material2",
      "pbrMetallicRoughness": {
        "baseColorTexture": {
          "index": 1
        },
        "metallicFactor": 0.0
      }
    },
    {
      "doubleSided": true,
      "extensions": {
        "KHR_materials_unlit": {}
      },
      "name": "material3",
      "pbrMetallicRoughness": {
        "baseColorTexture": {
          "index": 2
        },
        "metallicFactor": 0.0
      }
    },
    {
      "doubleSided": true,
      "extensions": {
        "KHR_materials_unlit": {}
      },
      "name": "material0",
      "pbrMetallicRoughness": {
        "baseColorTexture": {
          "index": 3
        },
        "metallicFactor": 0.0
      }
    }
  ],
  "meshes": [
    {
      "name": "Model_material1_0",
      "primitives": [
        {
          "attributes": {
            "NORMAL": 1,
            "POSITION": 0,
            "TEXCOORD_0": 2
          },
          "indices": 3,
          "material": 0,
          "mode": 4
        }
      ]
    },
    {
      "name": "Model_material1_0",
      "primitives": [
        {
          "attributes": {
            "NORMAL": 5,
            "POSITION": 4,
            "TEXCOORD_0": 6
          },
          "indices": 7,
          "material": 0,
          "mode": 4
        }
      ]
    },
    {
      "name": "Model_material2_0",
      "primitives": [
        {
          "attributes": {
            "NORMAL": 9,
            "POSITION": 8,
            "TEXCOORD_0": 10
          },
          "indices": 11,
          "material": 1,
          "mode": 4
        }
      ]
    },
    {
      "name": "Model_material2_0",
      "primitives": [
        {
          "attributes": {
            "NORMAL": 13,
            "POSITION": 12,
            "TEXCOORD_0": 14
          },
          "indices": 15,
          "material": 1,
          "mode": 4
        }
      ]
    },
    {
      "name": "Model_material3_0",
      "primitives": [
        {
          "attributes": {
            "NORMAL": 17,
            "POSITION": 16,
            "TEXCOORD_0": 18
          },
          "indices": 19,
          "material": 2,
          "mode": 4
        }
      ]
    },
    {
      "name": "Model_material3_0",
      "primitives": [
        {
          "attributes": {
            "NORMAL": 21,
            "POSITION": 20,
            "TEXCOORD_0": 22
          },
          "indices": 23,
          "material": 2,
          "mode": 4
        }
      ]
    },
    {
      "name": "Model_material0_0",
      "primitives": [
        {
          "attributes": {
            "NORMAL": 25,
            "POSITION": 24,
            "TEXCOORD_0": 26
          },
          "indices": 27,
          "material": 3,
          "mode": 4
        }
      ]
    },
    {
      "name": "Model_material0_0",
      "primitives": [
        {
          "attributes": {
            "NORMAL": 29,
            "POSITION": 28,
            "TEXCOORD_0": 30
          },
          "indices": 31,
          "material": 3,
          "mode": 4
        }
      ]
    }
  ],
  "nodes": [
    {
      "children": [
        1
      ],
      "matrix": [
        1.230076625943184,
        -0.03788884030655031,
        0.21903399378061295,
        0.0,
        0.14959408901631832,
        1.05214960873127,
        -0.6581054627895353,
        0.0,
        -0.1644173450767994,
        0.6738290935754774,
        1.0399141162633898,
        0.0,
        -0.0823451429605484,
        -0.23818826675415053,
        0.6675841212272644,
        1.0
      ],
      "name": "Sketchfab_model"
    },
    {
      "children": [
        2
      ],
      "matrix": [
        0.009999999776482582,
        0.0,
        0.0,
        0.0,
        0.0,
        0.0,
        0.009999999776482582,
        0.0,
        0.0,
        -0.009999999776482582,
        0.0,
        0.0,
        0.0,
        0.0,
        0.0,
        1.0
      ],
      "name": "TuDuc tomb.fbx"
    },
    {
      "children": [
        3
      ],
      "name": "RootNode"
    },
    {
      "children": [
        4,
        5,
        6,
        7,
        8,
        9,
        10,
        11
      ],
      "matrix": [
        100.0,
        0.0,
        0.0,
        0.0,
        0.0,
        -1.629206793918314e-05,
        -99.99999999999868,
        0.0,
        0.0,
        99.99999999999868,
        -1.629206793918314e-05,
        0.0,
        0.0,
        0.0,
        0.0,
        1.0
      ],
      "name": "Model"
    },
    {
      "mesh": 0,
      "name": "Model_material1_0"
    },
    {
      "mesh": 1,
      "name": "Model_material1_0"
    },
    {
      "mesh": 2,
      "name": "Model_material2_0"
    },
    {
      "mesh": 3,
      "name": "Model_material2_0"
    },
    {
      "mesh": 4,
      "name": "Model_material3_0"
    },
    {
      "mesh": 5,
      "name": "Model_material3_0"
    },
    {
      "mesh": 6,
      "name": "Model_material0_0"
    },
    {
      "mesh": 7,
      "name": "Model_material0_0"
    }
  ],
  "samplers": [
    {
      "magFilter": 9729,
      "minFilter": 9987,
      "wrapS": 10497,
      "wrapT": 10497
    }
  ],
  "scene": 0,
  "scenes": [
    {
      "name": "Sketchfab_Scene",
      "nodes": [
        0
      ]
    }
  ],
  "textures": [
    {
      "sampler": 0,
      "source": 0
    },
    {
      "sampler": 0,
      "source": 1
    },
    {
      "sampler": 0,
      "source": 2
    },
    {
      "sampler": 0,
      "source": 3
    }
  ]
}
