{
  "accessors": [
    {
      "bufferView": 2,
      "componentType": 5126,
      "count": 65532,
      "max": [
        6.703030109405518,
        11.972691535949707,
        6.033633708953857
      ],
      "min": [
        -9.60052490234375,
        -1.0049115419387817,
        -8.353158950805664
      ],
      "type": "VEC3"
    },
    {
      "bufferView": 2,
      "byteOffset": 786384,
      "componentType": 5126,
      "count": 65532,
      "max": [
        0.9999971985816956,
        0.9999997615814209,
        0.9999998807907104
      ],
      "min": [
        -0.9999973773956299,
        -0.9999106526374817,
        -0.9999942779541016
      ],
      "type": "VEC3"
    },
    {
      "bufferView": 1,
      "componentType": 5126,
      "count": 65532,
      "max": [
        0.9999999403953552,
        0.9999650120735168
      ],
      "min": [
        0.0,
        0.0
      ],
      "type": "VEC2"
    },
    {
      "bufferView": 0,
      "componentType": 5125,
      "count": 358149,
      "type": "SCALAR"
    },
    {
      "bufferView": 2,
      "byteOffset": 1572768,
      "componentType": 5126,
      "count": 26511,
      "max": [
        6.472005367279053,
        11.972691535949707,
        5.6739325523376465
      ],
      "min": [
        -4.890949249267578,
        -0.6322747468948364,
        -7.009798049926758
      ],
      "type": "VEC3"
    },
    {
      "bufferView": 2,
      "byteOffset": 1890900,
      "componentType": 5126,
      "count": 26511,
      "max": [
        0.9999971985816956,
        0.9999986290931702,
        0.9999979138374329
      ],
      "min": [
        -0.999993085861206,
        -0.9999864101409912,
        -1.0
      ],
      "type": "VEC3"
    },
    {
      "bufferView": 1,
      "byteOffset": 524256,
      "componentType": 5126,
      "count": 26511,
      "max": [
        0.9788699746131897,
        0.9996740221977234
      ],
      "min": [
        0.0,
        0.0
      ],
      "type": "VEC2"
    },
    {
      "bufferView": 0,
      "byteOffset": 1432596,
      "componentType": 5125,
      "count": 119556,
      "type": "SCALAR"
    },
    {
      "bufferView": 2,
      "byteOffset": 2209032,
      "componentType": 5126,
      "count": 371,
      "max": [
        0.055294036865234375,
        11.323436737060547,
        2.4290642738342285
      ],
      "min": [
        -1.8031482696533203,
        4.055541515350342,
        0.7361330986022949
      ],
      "type": "VEC3"
    },
    {
      "bufferView": 2,
      "byteOffset": 2213484,
      "componentType": 5126,
      "count": 371,
      "max": [
        -0.4990372359752655,
        0.44919872283935547,
        0.8278381824493408
      ],
      "min": [
        -0.5114606022834778,
        0.2304176390171051,
        0.7410683631896973
      ],
      "type": "VEC3"
    },
    {
      "bufferView": 1,
      "byteOffset": 736344,
      "componentType": 5126,
      "count": 371,
      "max": [
        0.1358477622270584,
        1.0
      ],
      "min": [
        0.0,
        0.0
      ],
      "type": "VEC2"
    },
    {
      "bufferView": 0,
      "byteOffset": 1910820,
      "componentType": 5125,
      "count": 1098,
      "type": "SCALAR"
    },
    {
      "bufferView": 2,
      "byteOffset": 2217936,
      "componentType": 5126,
      "count": 49,
      "max": [
        1.089599609375,
        0.032521724700927734,
        1.0422961711883545
      ],
      "min": [
        -0.9882278442382813,
        -0.09900283813476563,
        -1.068129539489746
      ],
      "type": "VEC3"
    },
    {
      "bufferView": 2,
      "byteOffset": 2218524,
      "componentType": 5126,
      "count": 49,
      "max": [
        0.13319189846515656,
        0.9999908804893494,
        0.22649464011192322
      ],
      "min": [
        -0.2596060335636139,
        0.9386088252067566,
        -0.22719670832157135
      ],
      "type": "VEC3"
    },
    {
      "bufferView": 1,
      "byteOffset": 739312,
      "componentType": 5126,
      "count": 49,
      "max": [
        0.9940364360809326,
        1.0033519268035889
      ],
      "min": [
        0.9231308698654175,
        0.8972066640853882
      ],
      "type": "VEC2"
    },
    {
      "bufferView": 0,
      "byteOffset": 1915212,
      "componentType": 5125,
      "count": 216,
      "type": "SCALAR"
    }
  ],
  "asset": {
    "extras": {
      "author": "chaweemek (https://sketchfab.com/chaweemek)",
      "license": "CC-BY-4.0 (http://creativecommons.org/licenses/by/4.0/)",
      "source": "https://sketchfab.com/3d-models/8c777073e4854b29bd3459b1bfcf8cc0",
      "title": "เจดีย์ทรงระฆังกลม วัดตระกวน สุโขทัย"
    },
    "generator": "Sketchfab-12.66.0",
    "version": "2.0"
  },
  "bufferViews": [
    {
      "buffer": 0,
      "byteLength": 1916076,
      "name": "floatBufferViews",
      "target": 34963
    },
    {
      "buffer": 0,
      "byteLength": 739704,
      "byteOffset": 1916076,
      "byteStride": 8,
      "name": "floatBufferViews",
      "target": 34962
    },
    {
      "buffer": 0,
      "byteLength": 2219112,
      "byteOffset": 2655780,
      "byteStride": 12,
      "name": "floatBufferViews",
      "target": 34962
    }
  ],
  "buffers": [
    {
      "byteLength": 4874892,
      "uri": "scene.bin"
    }
  ],
  "images": [
    {
      "uri": "textures/lambert1_baseColor.jpeg"
    },
    {
      "uri": "textures/lambert2_baseColor.jpeg"
    }
  ],
  "materials": [
    {
      "doubleSided": true,
      "name": "lambert1",
      "pbrMetallicRoughness": {
        "baseColorTexture": {
          "index": 0
        },
        "metallicFactor": 0.0,
        "roughnessFactor": 0.6
      }
    },
    {
      "doubleSided": true,
      "name": "lambert2",
      "pbrMetallicRoughness": {
        "baseColorTexture": {
          "index": 1
        },
        "metallicFactor": 0.0,
        "roughnessFactor": 0.6
      }
    }
  ],
  "meshes": [
    {
      "name": "pPlane2_lambert1_0",
      "primitives": [
        {
          "attributes": {
            "NORMAL": 1,
            "POSITION": 0,
            "TEXCOORD_0": 2
          },
          "indices": 3,
          "material": 0,
          "mode": 4
        }
      ]
    },
    {
      "name": "pPlane2_lambert1_0",
      "primitives": [
        {
          "attributes": {
            "NORMAL": 5,
            "POSITION": 4,
            "TEXCOORD_0": 6
          },
          "indices": 7,
          "material": 0,
          "mode": 4
        }
      ]
    },
    {
      "name": "pPlane2_lambert2_0",
      "primitives": [
        {
          "attributes": {
            "NORMAL": 9,
            "POSITION": 8,
            "TEXCOORD_0": 10
          },
          "indices": 11,
          "material": 1,
          "mode": 4
        }
      ]
    },
    {
      "name": "pPlane3_lambert1_0",
      "primitives": [
        {
          "attributes": {
            "NORMAL": 13,
            "POSITION": 12,
            "TEXCOORD_0": 14
          },
          "indices": 15,
          "material": 0,
          "mode": 4
        }
      ]
    }
  ],
  "nodes": [
    {
      "children": [
        1
      ],
      "matrix": [
        2.220446049250313e-16,
        -2.220446049250313e-16,
        1.0,
        0.0,
        1.0,
        4.930380657631324e-32,
        -2.220446049250313e-16,
        0.0,
        0.0,
        1.0,
        2.220446049250313e-16,
        0.0,
        -2.6085100173950195,
        -0.01773846894502646,
        0.2889847755432129,
        1.0
      ],
      "name": "Sketchfab_model"
    },
    {
      "children": [
        2
      ],
      "matrix": [
        1.0,
        0.0,
        0.0,
        0.0,
        0.0,
        0.0,
        1.0,
        0.0,
        0.0,
        -1.0,
        0.0,
        0.0,
        0.0,
        0.0,
        0.0,
        1.0
      ],
      "name": "trakuanFBX.fbx"
    },
    {
      "children": [
        3,
        7
      ],
      "name": "RootNode"
    },
    {
      "children": [
        4,
        5,
        6
      ],
      "name": "pPlane2"
    },
    {
      "mesh": 0,
      "name": "pPlane2_lambert1_0"
    },
    {
      "mesh": 1,
      "name": "pPlane2_lambert1_0"
    },
    {
      "mesh": 2,
      "name": "pPlane2_lambert2_0"
    },
    {
      "children": [
        8
      ],
      "matrix": [
        0.126030635518374,
        0.2650058263809839,
        -0.04427697726609657,
        0.0,
        -0.82945554913987,
        0.44980324938974325,
        0.3311805079401643,
        0.0,
        0.07218487236453551,
        -0.003360587351985458,
        0.18535434479310955,
        0.0,
        -0.03494540974497795,
        11.701215744018555,
        0.6809583902359009,
        1.0
      ],
      "name": "pPlane3"
    },
    {
      "mesh": 3,
      "name": "pPlane3_lambert1_0"
    }
  ],
  "samplers": [
    {
      "magFilter": 9729,
      "minFilter": 9987,
      "wrapS": 10497,
      "wrapT": 10497
    }
  ],
  "scene": 0,
  "scenes": [
    {
      "name": "Sketchfab_Scene",
      "nodes": [
        0
      ]
    }
  ],
  "textures": [
    {
      "sampler": 0,
      "source": 0
    },
    {
      "sampler": 0,
      "source": 1
    }
  ]
}
