{
	"asset":{
		"generator":"Khronos glTF Blender I/O v3.5.30",
		"version":"2.0"
	},
	"scene":0,
	"scenes":[
		{
			"name":"Scene",
			"nodes":[
				0,
				1,
				2,
				3,
				4,
				5,
				6,
				7,
				8,
				9,
				10,
				11,
				12,
				13
			]
		}
	],
	"nodes":[
		{
			"mesh":0,
			"name":"Cube.010",
			"scale":[
				0.8359823822975159,
				0.08769722282886505,
				0.48376673460006714
			],
			"translation":[
				0,
				-2.531219482421875,
				0.9223833084106445
			]
		},
		{
			"mesh":1,
			"name":"Cube.008",
			"scale":[
				0.8359823822975159,
				0.08769722282886505,
				0.48376673460006714
			],
			"translation":[
				0,
				-2.531219482421875,
				-3.681159496307373
			]
		},
		{
			"mesh":2,
			"name":"Cube.004",
			"rotation":[
				0,
				-0.7069011330604553,
				0,
				0.7073123455047607
			],
			"scale":[
				3.5004398822784424,
				2.096384048461914,
				0.07062546908855438
			],
			"translation":[
				-0.9191165566444397,
				-0.2692912817001343,
				-1.3270055055618286
			]
		},
		{
			"mesh":3,
			"name":"Cube.003",
			"rotation":[
				-0.7083082795143127,
				0,
				0,
				0.7059032917022705
			],
			"scale":[
				1,
				3.7787394523620605,
				0.04814968258142471
			],
			"translation":[
				0,
				-2.4132096767425537,
				-1.2213066816329956
			]
		},
		{
			"mesh":4,
			"name":"Cube.002",
			"rotation":[
				-0.7083082795143127,
				0,
				0,
				0.7059032320976257
			],
			"scale":[
				1.0722389221191406,
				4.0409159660339355,
				0.05162796005606651
			],
			"translation":[
				0.025415807962417603,
				1.8501652479171753,
				-1.225414514541626
			]
		},
		{
			"mesh":5,
			"name":"Cube.001",
			"scale":[
				1,
				2.096384048461914,
				0.18862776458263397
			],
			"translation":[
				0,
				-0.2692912817001343,
				-4.823297500610352
			]
		},
		{
			"mesh":6,
			"name":"Cube",
			"scale":[
				1,
				2.096384048461914,
				0.18862776458263397
			],
			"translation":[
				0,
				-0.2692912817001343,
				2.3274261951446533
			]
		},
		{
			"mesh":7,
			"name":"Cylinder.005",
			"rotation":[
				0,
				0,
				-1,
				7.549790836947068e-08
			],
			"scale":[
				0.04483577609062195,
				0.04064244404435158,
				0.06000135466456413
			],
			"translation":[
				0.9024157524108887,
				1.1082992553710938,
				-0.14437651634216309
			]
		},
		{
			"mesh":8,
			"name":"Cylinder.004",
			"rotation":[
				0,
				0,
				-1,
				7.549790836947068e-08
			],
			"scale":[
				0.04483577609062195,
				0.04064244404435158,
				0.06000135466456413
			],
			"translation":[
				0.9024157524108887,
				-0.23742586374282837,
				-0.14437651634216309
			]
		},
		{
			"mesh":9,
			"name":"Cylinder.003",
			"rotation":[
				0,
				0,
				-1,
				7.549790836947068e-08
			],
			"scale":[
				0.04483577609062195,
				0.04064244404435158,
				0.06000135466456413
			],
			"translation":[
				0.9024157524108887,
				-1.6438829898834229,
				-0.14437651634216309
			]
		},
		{
			"mesh":10,
			"name":"Cylinder.002",
			"rotation":[
				0,
				0,
				-1,
				7.549790836947068e-08
			],
			"scale":[
				0.04483577609062195,
				0.04064244404435158,
				0.06000135466456413
			],
			"translation":[
				0.9024157524108887,
				-1.6438829898834229,
				-3.6149370670318604
			]
		},
		{
			"mesh":11,
			"name":"Cylinder.001",
			"rotation":[
				0,
				0,
				-1,
				7.549790836947068e-08
			],
			"scale":[
				0.04483577609062195,
				0.04064244404435158,
				0.06000135466456413
			],
			"translation":[
				0.9024157524108887,
				-0.23742586374282837,
				-3.6149370670318604
			]
		},
		{
			"mesh":12,
			"name":"Cylinder",
			"rotation":[
				0,
				0,
				-1,
				7.549790836947068e-08
			],
			"scale":[
				0.04483577609062195,
				0.04064244404435158,
				0.06000135466456413
			],
			"translation":[
				0.9024157524108887,
				1.1082992553710938,
				-3.6149370670318604
			]
		},
		{
			"mesh":13,
			"name":"Cube.011",
			"rotation":[
				0,
				-0.7069011330604553,
				0,
				0.7073123455047607
			],
			"scale":[
				3.5004398822784424,
				2.096384048461914,
				0.07062546908855438
			],
			"translation":[
				0.9394014477729797,
				-0.2692912817001343,
				-1.3270055055618286
			]
		}
	],
	"materials":[
		{
			"doubleSided":true,
			"name":"Material",
			"pbrMetallicRoughness":{
				"baseColorFactor":[
					0.800000011920929,
					0.800000011920929,
					0.800000011920929,
					1
				],
				"metallicFactor":0,
				"roughnessFactor":0.5
			}
		},
		{
			"doubleSided":true,
			"name":"Material.002",
			"pbrMetallicRoughness":{
				"baseColorFactor":[
					0.800000011920929,
					0.800000011920929,
					0.800000011920929,
					1
				],
				"metallicFactor":0,
				"roughnessFactor":0.5
			}
		},
		{
			"doubleSided":true,
			"name":"Material.004",
			"pbrMetallicRoughness":{
				"baseColorFactor":[
					0.011087593622505665,
					0.011087593622505665,
					0.011087593622505665,
					1
				],
				"metallicFactor":0,
				"roughnessFactor":0.5
			}
		}
	],
	"meshes":[
		{
			"name":"Cube.011",
			"primitives":[
				{
					"attributes":{
						"POSITION":0,
						"NORMAL":1
					},
					"indices":2,
					"material":0
				}
			]
		},
		{
			"name":"Cube.010",
			"primitives":[
				{
					"attributes":{
						"POSITION":3,
						"NORMAL":4
					},
					"indices":2,
					"material":0
				}
			]
		},
		{
			"name":"Cube.004",
			"primitives":[
				{
					"attributes":{
						"POSITION":5,
						"NORMAL":6
					},
					"indices":7,
					"material":1
				}
			]
		},
		{
			"name":"Cube.003",
			"primitives":[
				{
					"attributes":{
						"POSITION":8,
						"NORMAL":9
					},
					"indices":7,
					"material":1
				}
			]
		},
		{
			"name":"Cube.002",
			"primitives":[
				{
					"attributes":{
						"POSITION":10,
						"NORMAL":11
					},
					"indices":12,
					"material":1
				}
			]
		},
		{
			"name":"Cube.001",
			"primitives":[
				{
					"attributes":{
						"POSITION":13,
						"NORMAL":14
					},
					"indices":7,
					"material":1
				}
			]
		},
		{
			"name":"Cube",
			"primitives":[
				{
					"attributes":{
						"POSITION":15,
						"NORMAL":16
					},
					"indices":7,
					"material":1
				}
			]
		},
		{
			"name":"Cylinder.005",
			"primitives":[
				{
					"attributes":{
						"POSITION":17,
						"NORMAL":18
					},
					"indices":19,
					"material":2
				}
			]
		},
		{
			"name":"Cylinder.004",
			"primitives":[
				{
					"attributes":{
						"POSITION":20,
						"NORMAL":21
					},
					"indices":19,
					"material":2
				}
			]
		},
		{
			"name":"Cylinder.003",
			"primitives":[
				{
					"attributes":{
						"POSITION":22,
						"NORMAL":23
					},
					"indices":19,
					"material":2
				}
			]
		},
		{
			"name":"Cylinder.002",
			"primitives":[
				{
					"attributes":{
						"POSITION":24,
						"NORMAL":25
					},
					"indices":19,
					"material":2
				}
			]
		},
		{
			"name":"Cylinder.001",
			"primitives":[
				{
					"attributes":{
						"POSITION":26,
						"NORMAL":27
					},
					"indices":19,
					"material":2
				}
			]
		},
		{
			"name":"Cylinder",
			"primitives":[
				{
					"attributes":{
						"POSITION":28,
						"NORMAL":29
					},
					"indices":19,
					"material":2
				}
			]
		},
		{
			"name":"Cube.008",
			"primitives":[
				{
					"attributes":{
						"POSITION":30,
						"NORMAL":31
					},
					"indices":32,
					"material":1
				},
				{
					"attributes":{
						"POSITION":33,
						"NORMAL":34
					},
					"indices":35,
					"material":2
				},
				{
					"attributes":{
						"POSITION":36,
						"NORMAL":37
					},
					"indices":38,
					"material":1
				}
			]
		}
	],
	"accessors":[
		{
			"bufferView":0,
			"componentType":5126,
			"count":24,
			"max":[
				1,
				1,
				1
			],
			"min":[
				-1,
				-1,
				-1
			],
			"type":"VEC3"
		},
		{
			"bufferView":1,
			"componentType":5126,
			"count":24,
			"type":"VEC3"
		},
		{
			"bufferView":2,
			"componentType":5123,
			"count":36,
			"type":"SCALAR"
		},
		{
			"bufferView":3,
			"componentType":5126,
			"count":24,
			"max":[
				1,
				1,
				1
			],
			"min":[
				-1,
				-1,
				-1
			],
			"type":"VEC3"
		},
		{
			"bufferView":4,
			"componentType":5126,
			"count":24,
			"type":"VEC3"
		},
		{
			"bufferView":5,
			"componentType":5126,
			"count":24,
			"max":[
				1.0000004768371582,
				1,
				1.0000005960464478
			],
			"min":[
				-1.0000003576278687,
				-1,
				-1.0000003576278687
			],
			"type":"VEC3"
		},
		{
			"bufferView":6,
			"componentType":5126,
			"count":24,
			"type":"VEC3"
		},
		{
			"bufferView":7,
			"componentType":5123,
			"count":36,
			"type":"SCALAR"
		},
		{
			"bufferView":8,
			"componentType":5126,
			"count":24,
			"max":[
				1.0000004768371582,
				1,
				1.0000005960464478
			],
			"min":[
				-1.0000003576278687,
				-1,
				-1.0000003576278687
			],
			"type":"VEC3"
		},
		{
			"bufferView":9,
			"componentType":5126,
			"count":24,
			"type":"VEC3"
		},
		{
			"bufferView":10,
			"componentType":5126,
			"count":80,
			"max":[
				1.0000004768371582,
				1.0000001192092896,
				1.1646404266357422
			],
			"min":[
				-1.0000003576278687,
				-1.0000001192092896,
				-1.164640188217163
			],
			"type":"VEC3"
		},
		{
			"bufferView":11,
			"componentType":5126,
			"count":80,
			"type":"VEC3"
		},
		{
			"bufferView":12,
			"componentType":5123,
			"count":180,
			"type":"SCALAR"
		},
		{
			"bufferView":13,
			"componentType":5126,
			"count":24,
			"max":[
				1.0000004768371582,
				1,
				1.0000005960464478
			],
			"min":[
				-1.0000003576278687,
				-1,
				-1.0000003576278687
			],
			"type":"VEC3"
		},
		{
			"bufferView":14,
			"componentType":5126,
			"count":24,
			"type":"VEC3"
		},
		{
			"bufferView":15,
			"componentType":5126,
			"count":24,
			"max":[
				1.0000004768371582,
				1,
				1.0000005960464478
			],
			"min":[
				-1.0000003576278687,
				-1,
				-1.0000003576278687
			],
			"type":"VEC3"
		},
		{
			"bufferView":16,
			"componentType":5126,
			"count":24,
			"type":"VEC3"
		},
		{
			"bufferView":17,
			"componentType":5126,
			"count":320,
			"max":[
				-1.9318575859069824,
				2.373457908630371,
				10.224235534667969
			],
			"min":[
				-4.464402675628662,
				-2.373457193374634,
				5.477320671081543
			],
			"type":"VEC3"
		},
		{
			"bufferView":18,
			"componentType":5126,
			"count":320,
			"type":"VEC3"
		},
		{
			"bufferView":19,
			"componentType":5123,
			"count":564,
			"type":"SCALAR"
		},
		{
			"bufferView":20,
			"componentType":5126,
			"count":320,
			"max":[
				-1.9318575859069824,
				2.373457908630371,
				10.224235534667969
			],
			"min":[
				-4.464402675628662,
				-2.373457193374634,
				5.477320671081543
			],
			"type":"VEC3"
		},
		{
			"bufferView":21,
			"componentType":5126,
			"count":320,
			"type":"VEC3"
		},
		{
			"bufferView":22,
			"componentType":5126,
			"count":320,
			"max":[
				-1.9318575859069824,
				2.373457908630371,
				10.224235534667969
			],
			"min":[
				-4.464402675628662,
				-2.373457193374634,
				5.477320671081543
			],
			"type":"VEC3"
		},
		{
			"bufferView":23,
			"componentType":5126,
			"count":320,
			"type":"VEC3"
		},
		{
			"bufferView":24,
			"componentType":5126,
			"count":320,
			"max":[
				-1.9318575859069824,
				2.373457908630371,
				10.224235534667969
			],
			"min":[
				-4.464402675628662,
				-2.373457193374634,
				5.477320671081543
			],
			"type":"VEC3"
		},
		{
			"bufferView":25,
			"componentType":5126,
			"count":320,
			"type":"VEC3"
		},
		{
			"bufferView":26,
			"componentType":5126,
			"count":320,
			"max":[
				-1.9318575859069824,
				2.373457908630371,
				10.224235534667969
			],
			"min":[
				-4.464402675628662,
				-2.373457193374634,
				5.477320671081543
			],
			"type":"VEC3"
		},
		{
			"bufferView":27,
			"componentType":5126,
			"count":320,
			"type":"VEC3"
		},
		{
			"bufferView":28,
			"componentType":5126,
			"count":320,
			"max":[
				-1.9318575859069824,
				2.373457908630371,
				10.224235534667969
			],
			"min":[
				-4.464402675628662,
				-2.373457193374634,
				5.477320671081543
			],
			"type":"VEC3"
		},
		{
			"bufferView":29,
			"componentType":5126,
			"count":320,
			"type":"VEC3"
		},
		{
			"bufferView":30,
			"componentType":5126,
			"count":52,
			"max":[
				1.0000004768371582,
				1,
				1.0000005960464478
			],
			"min":[
				-1.0000003576278687,
				-1,
				-1.0000003576278687
			],
			"type":"VEC3"
		},
		{
			"bufferView":31,
			"componentType":5126,
			"count":52,
			"type":"VEC3"
		},
		{
			"bufferView":32,
			"componentType":5123,
			"count":138,
			"type":"SCALAR"
		},
		{
			"bufferView":33,
			"componentType":5126,
			"count":24,
			"max":[
				0.9817204475402832,
				0.9817200303077698,
				-0.999999463558197
			],
			"min":[
				-0.981719970703125,
				-0.980613112449646,
				-1.0000003576278687
			],
			"type":"VEC3"
		},
		{
			"bufferView":34,
			"componentType":5126,
			"count":24,
			"type":"VEC3"
		},
		{
			"bufferView":35,
			"componentType":5123,
			"count":72,
			"type":"SCALAR"
		},
		{
			"bufferView":36,
			"componentType":5126,
			"count":12,
			"max":[
				0.9717204570770264,
				0.9717200398445129,
				-0.999999463558197
			],
			"min":[
				-0.9717199802398682,
				-0.9706131219863892,
				-1.0000003576278687
			],
			"type":"VEC3"
		},
		{
			"bufferView":37,
			"componentType":5126,
			"count":12,
			"type":"VEC3"
		},
		{
			"bufferView":38,
			"componentType":5123,
			"count":18,
			"type":"SCALAR"
		}
	],
	"bufferViews":[
		{
			"buffer":0,
			"byteLength":288,
			"byteOffset":0,
			"target":34962
		},
		{
			"buffer":0,
			"byteLength":288,
			"byteOffset":288,
			"target":34962
		},
		{
			"buffer":0,
			"byteLength":72,
			"byteOffset":576,
			"target":34963
		},
		{
			"buffer":0,
			"byteLength":288,
			"byteOffset":648,
			"target":34962
		},
		{
			"buffer":0,
			"byteLength":288,
			"byteOffset":936,
			"target":34962
		},
		{
			"buffer":0,
			"byteLength":288,
			"byteOffset":1224,
			"target":34962
		},
		{
			"buffer":0,
			"byteLength":288,
			"byteOffset":1512,
			"target":34962
		},
		{
			"buffer":0,
			"byteLength":72,
			"byteOffset":1800,
			"target":34963
		},
		{
			"buffer":0,
			"byteLength":288,
			"byteOffset":1872,
			"target":34962
		},
		{
			"buffer":0,
			"byteLength":288,
			"byteOffset":2160,
			"target":34962
		},
		{
			"buffer":0,
			"byteLength":960,
			"byteOffset":2448,
			"target":34962
		},
		{
			"buffer":0,
			"byteLength":960,
			"byteOffset":3408,
			"target":34962
		},
		{
			"buffer":0,
			"byteLength":360,
			"byteOffset":4368,
			"target":34963
		},
		{
			"buffer":0,
			"byteLength":288,
			"byteOffset":4728,
			"target":34962
		},
		{
			"buffer":0,
			"byteLength":288,
			"byteOffset":5016,
			"target":34962
		},
		{
			"buffer":0,
			"byteLength":288,
			"byteOffset":5304,
			"target":34962
		},
		{
			"buffer":0,
			"byteLength":288,
			"byteOffset":5592,
			"target":34962
		},
		{
			"buffer":0,
			"byteLength":3840,
			"byteOffset":5880,
			"target":34962
		},
		{
			"buffer":0,
			"byteLength":3840,
			"byteOffset":9720,
			"target":34962
		},
		{
			"buffer":0,
			"byteLength":1128,
			"byteOffset":13560,
			"target":34963
		},
		{
			"buffer":0,
			"byteLength":3840,
			"byteOffset":14688,
			"target":34962
		},
		{
			"buffer":0,
			"byteLength":3840,
			"byteOffset":18528,
			"target":34962
		},
		{
			"buffer":0,
			"byteLength":3840,
			"byteOffset":22368,
			"target":34962
		},
		{
			"buffer":0,
			"byteLength":3840,
			"byteOffset":26208,
			"target":34962
		},
		{
			"buffer":0,
			"byteLength":3840,
			"byteOffset":30048,
			"target":34962
		},
		{
			"buffer":0,
			"byteLength":3840,
			"byteOffset":33888,
			"target":34962
		},
		{
			"buffer":0,
			"byteLength":3840,
			"byteOffset":37728,
			"target":34962
		},
		{
			"buffer":0,
			"byteLength":3840,
			"byteOffset":41568,
			"target":34962
		},
		{
			"buffer":0,
			"byteLength":3840,
			"byteOffset":45408,
			"target":34962
		},
		{
			"buffer":0,
			"byteLength":3840,
			"byteOffset":49248,
			"target":34962
		},
		{
			"buffer":0,
			"byteLength":624,
			"byteOffset":53088,
			"target":34962
		},
		{
			"buffer":0,
			"byteLength":624,
			"byteOffset":53712,
			"target":34962
		},
		{
			"buffer":0,
			"byteLength":276,
			"byteOffset":54336,
			"target":34963
		},
		{
			"buffer":0,
			"byteLength":288,
			"byteOffset":54612,
			"target":34962
		},
		{
			"buffer":0,
			"byteLength":288,
			"byteOffset":54900,
			"target":34962
		},
		{
			"buffer":0,
			"byteLength":144,
			"byteOffset":55188,
			"target":34963
		},
		{
			"buffer":0,
			"byteLength":144,
			"byteOffset":55332,
			"target":34962
		},
		{
			"buffer":0,
			"byteLength":144,
			"byteOffset":55476,
			"target":34962
		},
		{
			"buffer":0,
			"byteLength":36,
			"byteOffset":55620,
			"target":34963
		}
	],
	"buffers":[
		{
			"byteLength":55656,
			"uri":"WalnutWardrobe.bin"
		}
	]
}
