{
	"asset":{
		"generator":"Khronos glTF Blender I/O v3.5.30",
		"version":"2.0"
	},
	"scene":0,
	"scenes":[
		{
			"name":"Scene",
			"nodes":[
				0,
				1,
				2
			]
		}
	],
	"nodes":[
		{
			"mesh":0,
			"name":"Cube",
			"translation":[
				0.7054750919342041,
				0.3553570806980133,
				2.6339564323425293
			]
		},
		{
			"mesh":0,
			"name":"Cube.001",
			"translation":[
				-0.7256213426589966,
				0.3543993830680847,
				2.6339564323425293
			]
		},
		{
			"mesh":1,
			"name":"Cube.002",
			"translation":[
				0.1153838038444519,
				0.743906557559967,
				2.6353256702423096
			]
		}
	],
	"materials":[
		{
			"doubleSided":true,
			"name":"Material",
			"pbrMetallicRoughness":{
				"baseColorFactor":[
					0,
					0,
					0,
					1
				],
				"metallicFactor":0,
				"roughnessFactor":0.5
			}
		},
		{
			"doubleSided":true,
			"name":"Material.001",
			"pbrMetallicRoughness":{
				"baseColorTexture":{
					"index":0
				},
				"metallicFactor":0,
				"roughnessFactor":0.5
			}
		}
	],
	"meshes":[
		{
			"name":"Cube.003",
			"primitives":[
				{
					"attributes":{
						"POSITION":0,
						"TEXCOORD_0":1,
						"NORMAL":2
					},
					"indices":3,
					"material":0
				}
			]
		},
		{
			"name":"Cube.001",
			"primitives":[
				{
					"attributes":{
						"POSITION":4,
						"TEXCOORD_0":5,
						"NORMAL":6
					},
					"indices":7,
					"material":1
				}
			]
		}
	],
	"textures":[
		{
			"sampler":0,
			"source":0
		}
	],
	"images":[
		{
			"mimeType":"image/png",
			"name":"table1.png",
			"uri":"../../blender/table1.png"
		}
	],
	"accessors":[
		{
			"bufferView":0,
			"componentType":5126,
			"count":144,
			"max":[
				0.1519090086221695,
				0.37558913230895996,
				0.3673253059387207
			],
			"min":[
				0.09829412400722504,
				-0.36807215213775635,
				-0.3592953681945801
			],
			"type":"VEC3"
		},
		{
			"bufferView":1,
			"componentType":5126,
			"count":144,
			"type":"VEC2"
		},
		{
			"bufferView":2,
			"componentType":5126,
			"count":144,
			"type":"VEC3"
		},
		{
			"bufferView":3,
			"componentType":5123,
			"count":240,
			"type":"SCALAR"
		},
		{
			"bufferView":4,
			"componentType":5126,
			"count":24,
			"max":[
				0.7417892813682556,
				0.013918012380599976,
				0.36066460609436035
			],
			"min":[
				-0.7417892813682556,
				-0.013918012380599976,
				-0.36066460609436035
			],
			"type":"VEC3"
		},
		{
			"bufferView":5,
			"componentType":5126,
			"count":24,
			"type":"VEC2"
		},
		{
			"bufferView":6,
			"componentType":5126,
			"count":24,
			"type":"VEC3"
		},
		{
			"bufferView":7,
			"componentType":5123,
			"count":36,
			"type":"SCALAR"
		}
	],
	"bufferViews":[
		{
			"buffer":0,
			"byteLength":1728,
			"byteOffset":0,
			"target":34962
		},
		{
			"buffer":0,
			"byteLength":1152,
			"byteOffset":1728,
			"target":34962
		},
		{
			"buffer":0,
			"byteLength":1728,
			"byteOffset":2880,
			"target":34962
		},
		{
			"buffer":0,
			"byteLength":480,
			"byteOffset":4608,
			"target":34963
		},
		{
			"buffer":0,
			"byteLength":288,
			"byteOffset":5088,
			"target":34962
		},
		{
			"buffer":0,
			"byteLength":192,
			"byteOffset":5376,
			"target":34962
		},
		{
			"buffer":0,
			"byteLength":288,
			"byteOffset":5568,
			"target":34962
		},
		{
			"buffer":0,
			"byteLength":72,
			"byteOffset":5856,
			"target":34963
		}
	],
	"samplers":[
		{
			"magFilter":9729,
			"minFilter":9987
		}
	],
	"buffers":[
		{
			"byteLength":5928,
			"uri":"SteelLegTable.bin"
		}
	]
}
