{
	"asset":{
		"generator":"Khronos glTF Blender I/O v3.5.30",
		"version":"2.0"
	},
	"scene":0,
	"scenes":[
		{
			"name":"Scene",
			"nodes":[
				0
			]
		}
	],
	"nodes":[
		{
			"mesh":0,
			"name":"BookShelf.001",
			"scale":[
				0.502666175365448,
				0.11685598641633987,
				0.4789566695690155
			],
			"translation":[
				0.08751785755157471,
				3.476043939590454,
				-0.08863383531570435
			]
		}
	],
	"meshes":[
		{
			"name":"Cube.002",
			"primitives":[
				{
					"attributes":{
						"POSITION":0,
						"TEXCOORD_0":1,
						"NORMAL":2
					},
					"indices":3
				}
			]
		}
	],
	"accessors":[
		{
			"bufferView":0,
			"componentType":5126,
			"count":376,
			"max":[
				0.8221652507781982,
				27.144588470458984,
				3.0542216300964355
			],
			"min":[
				-1.1778347492218018,
				-29.035079956054688,
				-3.0542216300964355
			],
			"type":"VEC3"
		},
		{
			"bufferView":1,
			"componentType":5126,
			"count":376,
			"type":"VEC2"
		},
		{
			"bufferView":2,
			"componentType":5126,
			"count":376,
			"type":"VEC3"
		},
		{
			"bufferView":3,
			"componentType":5123,
			"count":996,
			"type":"SCALAR"
		}
	],
	"bufferViews":[
		{
			"buffer":0,
			"byteLength":4512,
			"byteOffset":0,
			"target":34962
		},
		{
			"buffer":0,
			"byteLength":3008,
			"byteOffset":4512,
			"target":34962
		},
		{
			"buffer":0,
			"byteLength":4512,
			"byteOffset":7520,
			"target":34962
		},
		{
			"buffer":0,
			"byteLength":1992,
			"byteOffset":12032,
			"target":34963
		}
	],
	"buffers":[
		{
			"byteLength":14024,
			"uri":"Billy.bin"
		}
	]
}
