{
	"asset":{
		"generator":"Khronos glTF Blender I/O v3.5.30",
		"version":"2.0"
	},
	"scene":0,
	"scenes":[
		{
			"name":"Scene",
			"nodes":[
				0,
				2,
				3,
				4
			]
		}
	],
	"nodes":[
		{
			"mesh":0,
			"name":"Plane",
			"scale":[
				1.1566431522369385,
				1.1566431522369385,
				1.7373442649841309
			],
			"translation":[
				0.2890234589576721,
				0.5624893307685852,
				0.440787136554718
			]
		},
		{
			"mesh":1,
			"name":"Cylinder.003",
			"scale":[
				19.418251037597656,
				19.418249130249023,
				19.418251037597656
			]
		},
		{
			"children":[
				1
			],
			"name":"Chair Caster Wheel",
			"rotation":[
				0,
				-0.5029610395431519,
				0,
				0.8643090724945068
			],
			"scale":[
				-0.23655204474925995,
				-0.23655202984809875,
				-0.23655204474925995
			],
			"translation":[
				1.2339131832122803,
				0.5623175501823425,
				1.962602138519287
			]
		},
		{
			"mesh":2,
			"name":"Plane.001",
			"rotation":[
				0,
				0.3049597144126892,
				0,
				0.9523652791976929
			],
			"scale":[
				48.99368667602539,
				48.99368667602539,
				48.99368667602539
			]
		},
		{
			"mesh":3,
			"name":"Circle",
			"scale":[
				0.5551830530166626,
				0.5551830530166626,
				0.5551830530166626
			],
			"translation":[
				0.4263378977775574,
				0.2427087128162384,
				0.569432258605957
			]
		}
	],
	"materials":[
		{
			"doubleSided":true,
			"name":"Fine wood",
			"pbrMetallicRoughness":{
				"metallicFactor":0
			}
		},
		{
			"doubleSided":true,
			"name":"caster_plastic touched",
			"pbrMetallicRoughness":{
				"baseColorFactor":[
					0.02572387270629406,
					0.02572387270629406,
					0.02572387270629406,
					1
				],
				"metallicFactor":0
			}
		},
		{
			"doubleSided":true,
			"name":"caster_plastic touched w",
			"pbrMetallicRoughness":{
				"metallicFactor":0
			}
		},
		{
			"doubleSided":true,
			"name":"Material.001",
			"pbrMetallicRoughness":{
				"baseColorFactor":[
					0,
					0,
					0,
					1
				],
				"metallicFactor":0,
				"roughnessFactor":0.5
			}
		},
		{
			"doubleSided":true,
			"name":"coffee",
			"pbrMetallicRoughness":{}
		}
	],
	"meshes":[
		{
			"name":"Plane",
			"primitives":[
				{
					"attributes":{
						"POSITION":0,
						"TEXCOORD_0":1,
						"TEXCOORD_1":2,
						"NORMAL":3
					},
					"indices":4,
					"material":0
				}
			]
		},
		{
			"name":"Cylinder.005",
			"primitives":[
				{
					"attributes":{
						"POSITION":5,
						"TEXCOORD_0":6,
						"TEXCOORD_1":7,
						"NORMAL":8
					},
					"indices":9,
					"material":1
				},
				{
					"attributes":{
						"POSITION":10,
						"TEXCOORD_0":11,
						"TEXCOORD_1":12,
						"NORMAL":13
					},
					"indices":14,
					"material":2
				}
			]
		},
		{
			"name":"Plane.001",
			"primitives":[
				{
					"attributes":{
						"POSITION":15,
						"TEXCOORD_0":16,
						"NORMAL":17
					},
					"indices":18,
					"material":3
				}
			]
		},
		{
			"name":"Circle",
			"primitives":[
				{
					"attributes":{
						"POSITION":19,
						"NORMAL":20
					},
					"indices":21,
					"material":4
				}
			]
		}
	],
	"accessors":[
		{
			"bufferView":0,
			"componentType":5126,
			"count":12948,
			"max":[
				1.001579999923706,
				2.4138920307159424,
				1
			],
			"min":[
				-1,
				0,
				-1
			],
			"type":"VEC3"
		},
		{
			"bufferView":1,
			"componentType":5126,
			"count":12948,
			"type":"VEC2"
		},
		{
			"bufferView":2,
			"componentType":5126,
			"count":12948,
			"type":"VEC2"
		},
		{
			"bufferView":3,
			"componentType":5126,
			"count":12948,
			"type":"VEC3"
		},
		{
			"bufferView":4,
			"componentType":5123,
			"count":19860,
			"type":"SCALAR"
		},
		{
			"bufferView":5,
			"componentType":5126,
			"count":1004133,
			"max":[
				0.8054431676864624,
				0.07785820960998535,
				0.3705461025238037
			],
			"min":[
				-0.026094486936926842,
				5.788955604657531e-06,
				-0.40086978673934937
			],
			"type":"VEC3"
		},
		{
			"bufferView":6,
			"componentType":5126,
			"count":1004133,
			"type":"VEC2"
		},
		{
			"bufferView":7,
			"componentType":5126,
			"count":1004133,
			"type":"VEC2"
		},
		{
			"bufferView":8,
			"componentType":5126,
			"count":1004133,
			"type":"VEC3"
		},
		{
			"bufferView":9,
			"componentType":5125,
			"count":1513728,
			"type":"SCALAR"
		},
		{
			"bufferView":10,
			"componentType":5126,
			"count":212867,
			"max":[
				0.8059464693069458,
				0.06636296212673187,
				0.3670002818107605
			],
			"min":[
				-0.026597801595926285,
				0.02776612527668476,
				-0.39732396602630615
			],
			"type":"VEC3"
		},
		{
			"bufferView":11,
			"componentType":5126,
			"count":212867,
			"type":"VEC2"
		},
		{
			"bufferView":12,
			"componentType":5126,
			"count":212867,
			"type":"VEC2"
		},
		{
			"bufferView":13,
			"componentType":5126,
			"count":212867,
			"type":"VEC3"
		},
		{
			"bufferView":14,
			"componentType":5125,
			"count":319488,
			"type":"SCALAR"
		},
		{
			"bufferView":15,
			"componentType":5126,
			"count":42,
			"max":[
				1,
				1.4801238775253296,
				1
			],
			"min":[
				-1.4871875047683716,
				0,
				-1
			],
			"type":"VEC3"
		},
		{
			"bufferView":16,
			"componentType":5126,
			"count":42,
			"type":"VEC2"
		},
		{
			"bufferView":17,
			"componentType":5126,
			"count":42,
			"type":"VEC3"
		},
		{
			"bufferView":18,
			"componentType":5123,
			"count":120,
			"type":"SCALAR"
		},
		{
			"bufferView":19,
			"componentType":5126,
			"count":96,
			"max":[
				0.034549012780189514,
				0.00015100016025826335,
				0.034549012780189514
			],
			"min":[
				-0.034549012780189514,
				-0.0010531565640121698,
				-0.034549012780189514
			],
			"type":"VEC3"
		},
		{
			"bufferView":20,
			"componentType":5126,
			"count":96,
			"type":"VEC3"
		},
		{
			"bufferView":21,
			"componentType":5123,
			"count":474,
			"type":"SCALAR"
		}
	],
	"bufferViews":[
		{
			"buffer":0,
			"byteLength":155376,
			"byteOffset":0,
			"target":34962
		},
		{
			"buffer":0,
			"byteLength":103584,
			"byteOffset":155376,
			"target":34962
		},
		{
			"buffer":0,
			"byteLength":103584,
			"byteOffset":258960,
			"target":34962
		},
		{
			"buffer":0,
			"byteLength":155376,
			"byteOffset":362544,
			"target":34962
		},
		{
			"buffer":0,
			"byteLength":39720,
			"byteOffset":517920,
			"target":34963
		},
		{
			"buffer":0,
			"byteLength":12049596,
			"byteOffset":557640,
			"target":34962
		},
		{
			"buffer":0,
			"byteLength":8033064,
			"byteOffset":12607236,
			"target":34962
		},
		{
			"buffer":0,
			"byteLength":8033064,
			"byteOffset":20640300,
			"target":34962
		},
		{
			"buffer":0,
			"byteLength":12049596,
			"byteOffset":28673364,
			"target":34962
		},
		{
			"buffer":0,
			"byteLength":6054912,
			"byteOffset":40722960,
			"target":34963
		},
		{
			"buffer":0,
			"byteLength":2554404,
			"byteOffset":46777872,
			"target":34962
		},
		{
			"buffer":0,
			"byteLength":1702936,
			"byteOffset":49332276,
			"target":34962
		},
		{
			"buffer":0,
			"byteLength":1702936,
			"byteOffset":51035212,
			"target":34962
		},
		{
			"buffer":0,
			"byteLength":2554404,
			"byteOffset":52738148,
			"target":34962
		},
		{
			"buffer":0,
			"byteLength":1277952,
			"byteOffset":55292552,
			"target":34963
		},
		{
			"buffer":0,
			"byteLength":504,
			"byteOffset":56570504,
			"target":34962
		},
		{
			"buffer":0,
			"byteLength":336,
			"byteOffset":56571008,
			"target":34962
		},
		{
			"buffer":0,
			"byteLength":504,
			"byteOffset":56571344,
			"target":34962
		},
		{
			"buffer":0,
			"byteLength":240,
			"byteOffset":56571848,
			"target":34963
		},
		{
			"buffer":0,
			"byteLength":1152,
			"byteOffset":56572088,
			"target":34962
		},
		{
			"buffer":0,
			"byteLength":1152,
			"byteOffset":56573240,
			"target":34962
		},
		{
			"buffer":0,
			"byteLength":948,
			"byteOffset":56574392,
			"target":34963
		}
	],
	"buffers":[
		{
			"byteLength":56575340,
			"uri":"Cabinet.bin"
		}
	]
}
