{
	"asset":{
		"generator":"Khronos glTF Blender I/O v3.5.30",
		"version":"2.0"
	},
	"scene":0,
	"scenes":[
		{
			"name":"Scene",
			"nodes":[
				0,
				1,
				2,
				3,
				4,
				5,
				6,
				7,
				8
			]
		}
	],
	"nodes":[
		{
			"mesh":0,
			"name":"Cube.004",
			"rotation":[
				0.05014118552207947,
				0.05014118552207947,
				0.7053267955780029,
				0.7053267955780029
			],
			"translation":[
				-0.4396863877773285,
				1.8691563606262207,
				-0.6828151941299438
			]
		},
		{
			"mesh":0,
			"name":"Cube.005",
			"rotation":[
				0.05014118552207947,
				0.05014118552207947,
				0.7053267955780029,
				0.7053267955780029
			],
			"translation":[
				-0.44215846061706543,
				1.4837422370910645,
				-0.6828152537345886
			]
		},
		{
			"mesh":0,
			"name":"Cube.006",
			"rotation":[
				0.05014118552207947,
				0.05014118552207947,
				0.7053267955780029,
				0.7053267955780029
			],
			"translation":[
				-0.436914324760437,
				1.045209288597107,
				-0.6828153133392334
			]
		},
		{
			"mesh":0,
			"name":"Cube.007",
			"rotation":[
				0.05014118552207947,
				0.05014118552207947,
				0.7053267955780029,
				0.7053267955780029
			],
			"translation":[
				-0.43690523505210876,
				0.5957890152931213,
				-0.6828153729438782
			]
		},
		{
			"mesh":0,
			"name":"Cube.008",
			"rotation":[
				0.05014118552207947,
				0.05014118552207947,
				0.7053267955780029,
				0.7053267955780029
			],
			"translation":[
				-0.4428514242172241,
				0.1602259874343872,
				-0.682815432548523
			]
		},
		{
			"mesh":1,
			"name":"Cube",
			"rotation":[
				0,
				-0.6503572463989258,
				0,
				0.7596285939216614
			],
			"scale":[
				0.14196033775806427,
				0.14196033775806427,
				0.14196033775806427
			],
			"translation":[
				-0.9548961520195007,
				0.09900292009115219,
				-0.7792041301727295
			]
		},
		{
			"mesh":2,
			"name":"Cube.001",
			"rotation":[
				0,
				0.08034981787204742,
				0,
				0.9967668056488037
			],
			"scale":[
				0.14196033775806427,
				0.14196033775806427,
				0.14196033775806427
			],
			"translation":[
				-0.8853447437286377,
				0.1001744270324707,
				-0.42811256647109985
			]
		},
		{
			"mesh":1,
			"name":"Cube.002",
			"rotation":[
				0,
				0.75546795129776,
				0,
				0.6551855802536011
			],
			"scale":[
				0.14196033775806427,
				0.14196033775806427,
				0.14196033775806427
			],
			"translation":[
				0.0731775164604187,
				0.09900292009115219,
				-0.5814194679260254
			]
		},
		{
			"mesh":2,
			"name":"Cube.003",
			"rotation":[
				0,
				-0.9979259371757507,
				0,
				0.06437275558710098
			],
			"scale":[
				0.14196032285690308,
				0.14196033775806427,
				0.14196032285690308
			],
			"translation":[
				0.007191598415374756,
				0.10056363791227341,
				-0.9433491230010986
			]
		}
	],
	"materials":[
		{
			"doubleSided":true,
			"name":"Material.003",
			"pbrMetallicRoughness":{
				"baseColorTexture":{
					"index":0
				},
				"metallicFactor":0,
				"roughnessFactor":0.5
			}
		},
		{
			"doubleSided":true,
			"name":"Material.005",
			"pbrMetallicRoughness":{
				"baseColorFactor":[
					0.800000011920929,
					0.800000011920929,
					0.800000011920929,
					1
				],
				"metallicFactor":0,
				"roughnessFactor":0.5
			}
		},
		{
			"doubleSided":true,
			"name":"Material.004",
			"pbrMetallicRoughness":{
				"baseColorFactor":[
					0.800000011920929,
					0.800000011920929,
					0.800000011920929,
					1
				],
				"metallicFactor":0,
				"roughnessFactor":0.5
			}
		}
	],
	"meshes":[
		{
			"name":"Cube.007",
			"primitives":[
				{
					"attributes":{
						"POSITION":0,
						"TEXCOORD_0":1,
						"NORMAL":2
					},
					"indices":3,
					"material":0
				}
			]
		},
		{
			"name":"Cube.001",
			"primitives":[
				{
					"attributes":{
						"POSITION":4,
						"TEXCOORD_0":5,
						"NORMAL":6
					},
					"indices":7,
					"material":1
				}
			]
		},
		{
			"name":"Cube.005",
			"primitives":[
				{
					"attributes":{
						"POSITION":8,
						"TEXCOORD_0":9,
						"NORMAL":10
					},
					"indices":11,
					"material":2
				}
			]
		}
	],
	"textures":[
		{
			"sampler":0,
			"source":0
		}
	],
	"images":[
		{
			"mimeType":"image/jpeg",
			"name":"01_light-brown_spc_SS.jpg.001",
			"uri":"../../blender/01_light-brown_spc_SS.jpg"
		}
	],
	"accessors":[
		{
			"bufferView":0,
			"componentType":5126,
			"count":24,
			"max":[
				0.009095251560211182,
				0.49022364616394043,
				0.18497590720653534
			],
			"min":[
				-0.009095251560211182,
				-0.49022364616394043,
				-0.18497590720653534
			],
			"type":"VEC3"
		},
		{
			"bufferView":1,
			"componentType":5126,
			"count":24,
			"type":"VEC2"
		},
		{
			"bufferView":2,
			"componentType":5126,
			"count":24,
			"type":"VEC3"
		},
		{
			"bufferView":3,
			"componentType":5123,
			"count":36,
			"type":"SCALAR"
		},
		{
			"bufferView":4,
			"componentType":5126,
			"count":412,
			"max":[
				2.4454102516174316,
				12.55988597869873,
				0.0221103448420763
			],
			"min":[
				-0.12753689289093018,
				-0.4435335397720337,
				-6.9377827644348145
			],
			"type":"VEC3"
		},
		{
			"bufferView":5,
			"componentType":5126,
			"count":412,
			"type":"VEC2"
		},
		{
			"bufferView":6,
			"componentType":5126,
			"count":412,
			"type":"VEC3"
		},
		{
			"bufferView":7,
			"componentType":5123,
			"count":1020,
			"type":"SCALAR"
		},
		{
			"bufferView":8,
			"componentType":5126,
			"count":152,
			"max":[
				0.12753689289093018,
				12.55988597869873,
				0.022110342979431152
			],
			"min":[
				-0.12753689289093018,
				-0.4435335397720337,
				-0.24258416891098022
			],
			"type":"VEC3"
		},
		{
			"bufferView":9,
			"componentType":5126,
			"count":152,
			"type":"VEC2"
		},
		{
			"bufferView":10,
			"componentType":5126,
			"count":152,
			"type":"VEC3"
		},
		{
			"bufferView":11,
			"componentType":5123,
			"count":396,
			"type":"SCALAR"
		}
	],
	"bufferViews":[
		{
			"buffer":0,
			"byteLength":288,
			"byteOffset":0,
			"target":34962
		},
		{
			"buffer":0,
			"byteLength":192,
			"byteOffset":288,
			"target":34962
		},
		{
			"buffer":0,
			"byteLength":288,
			"byteOffset":480,
			"target":34962
		},
		{
			"buffer":0,
			"byteLength":72,
			"byteOffset":768,
			"target":34963
		},
		{
			"buffer":0,
			"byteLength":4944,
			"byteOffset":840,
			"target":34962
		},
		{
			"buffer":0,
			"byteLength":3296,
			"byteOffset":5784,
			"target":34962
		},
		{
			"buffer":0,
			"byteLength":4944,
			"byteOffset":9080,
			"target":34962
		},
		{
			"buffer":0,
			"byteLength":2040,
			"byteOffset":14024,
			"target":34963
		},
		{
			"buffer":0,
			"byteLength":1824,
			"byteOffset":16064,
			"target":34962
		},
		{
			"buffer":0,
			"byteLength":1216,
			"byteOffset":17888,
			"target":34962
		},
		{
			"buffer":0,
			"byteLength":1824,
			"byteOffset":19104,
			"target":34962
		},
		{
			"buffer":0,
			"byteLength":792,
			"byteOffset":20928,
			"target":34963
		}
	],
	"samplers":[
		{
			"magFilter":9729,
			"minFilter":9987
		}
	],
	"buffers":[
		{
			"byteLength":21720,
			"uri":"MekkeShelf.bin"
		}
	]
}
