{
	"asset":{
		"generator":"Khronos glTF Blender I/O v3.5.30",
		"version":"2.0"
	},
	"scene":0,
	"scenes":[
		{
			"name":"Scene",
			"nodes":[
				0
			]
		}
	],
	"nodes":[
		{
			"mesh":0,
			"name":"Shelf",
			"scale":[
				0.5660788416862488,
				0.02433217316865921,
				2.4107112884521484
			],
			"translation":[
				0.09640854597091675,
				2.005539655685425,
				0.43762099742889404
			]
		}
	],
	"meshes":[
		{
			"name":"Cube.011",
			"primitives":[
				{
					"attributes":{
						"POSITION":0,
						"TEXCOORD_0":1,
						"NORMAL":2
					},
					"indices":3
				}
			]
		}
	],
	"accessors":[
		{
			"bufferView":0,
			"componentType":5126,
			"count":502,
			"max":[
				1.000001072883606,
				119.15668487548828,
				0.7983772158622742
			],
			"min":[
				-1.0000016689300537,
				-78.8256607055664,
				-1.2016229629516602
			],
			"type":"VEC3"
		},
		{
			"bufferView":1,
			"componentType":5126,
			"count":502,
			"type":"VEC2"
		},
		{
			"bufferView":2,
			"componentType":5126,
			"count":502,
			"type":"VEC3"
		},
		{
			"bufferView":3,
			"componentType":5123,
			"count":1140,
			"type":"SCALAR"
		}
	],
	"bufferViews":[
		{
			"buffer":0,
			"byteLength":6024,
			"byteOffset":0,
			"target":34962
		},
		{
			"buffer":0,
			"byteLength":4016,
			"byteOffset":6024,
			"target":34962
		},
		{
			"buffer":0,
			"byteLength":6024,
			"byteOffset":10040,
			"target":34962
		},
		{
			"buffer":0,
			"byteLength":2280,
			"byteOffset":16064,
			"target":34963
		}
	],
	"buffers":[
		{
			"byteLength":18344,
			"uri":"WoodenShelf.bin"
		}
	]
}
